# Blender 4.5.3 LTS
# www.blender.org
o sky130_fd_sc_hd__fa_1.gds_diff
v 6.380010 0.600000 -0.884990
v 7.049990 0.600000 -0.884990
v 7.049990 0.500000 -0.884990
v 6.380010 0.600000 -0.654990
v 6.380010 0.500000 -0.884990
v 3.280010 0.600000 -0.654990
v 6.380010 0.500000 -0.654990
v 3.280010 0.600000 -0.235010
v 3.280010 0.500000 -0.654990
v 7.049990 0.600000 -0.235010
v 3.280010 0.500000 -0.235010
v 7.049990 0.500000 -0.235010
v 3.280010 0.600000 -2.484990
v 7.049990 0.600000 -2.484990
v 7.049990 0.500000 -2.484990
v 3.280010 0.600000 -2.065010
v 3.280010 0.500000 -2.484990
v 6.380010 0.600000 -2.065010
v 3.280010 0.500000 -2.065010
v 6.380010 0.600000 -1.485010
v 6.380010 0.500000 -2.065010
v 7.049990 0.600000 -1.485010
v 6.380010 0.500000 -1.485010
v 7.049990 0.500000 -1.485010
v 0.804990 0.600000 -0.654990
v 3.009990 0.600000 -0.654990
v 3.009990 0.500000 -0.654990
v 0.804990 0.600000 -0.884990
v 0.804990 0.500000 -0.654990
v 0.135010 0.600000 -0.884990
v 0.804990 0.500000 -0.884990
v 0.135010 0.600000 -0.235010
v 0.135010 0.500000 -0.884990
v 3.009990 0.600000 -0.235010
v 0.135010 0.500000 -0.235010
v 3.009990 0.500000 -0.235010
v 0.135010 0.600000 -2.484990
v 3.009990 0.600000 -2.484990
v 3.009990 0.500000 -2.484990
v 0.135010 0.600000 -1.485010
v 0.135010 0.500000 -2.484990
v 0.804990 0.600000 -1.485010
v 0.135010 0.500000 -1.485010
v 0.804990 0.600000 -2.065010
v 0.804990 0.500000 -1.485010
v 3.009990 0.600000 -2.065010
v 0.804990 0.500000 -2.065010
v 3.009990 0.500000 -2.065010
vn -0.0000 -0.0000 -1.0000
vn -1.0000 -0.0000 -0.0000
vn -0.0000 -0.0000 1.0000
vn 1.0000 -0.0000 -0.0000
vn -0.0000 1.0000 -0.0000
vn -0.0000 -1.0000 -0.0000
s 0
f 1//1 2//1 3//1
f 4//2 1//2 5//2
f 6//1 4//1 7//1
f 8//2 6//2 9//2
f 10//3 8//3 11//3
f 2//4 10//4 12//4
f 3//1 5//1 1//1
f 5//2 7//2 4//2
f 7//1 9//1 6//1
f 9//2 11//2 8//2
f 11//3 12//3 10//3
f 12//4 3//4 2//4
f 8//5 4//5 6//5
f 4//5 8//5 10//5
f 4//5 2//5 1//5
f 2//5 4//5 10//5
f 9//6 7//6 11//6
f 12//6 11//6 7//6
f 5//6 3//6 7//6
f 12//6 7//6 3//6
f 13//1 14//1 15//1
f 16//2 13//2 17//2
f 18//3 16//3 19//3
f 20//2 18//2 21//2
f 22//3 20//3 23//3
f 14//4 22//4 24//4
f 15//1 17//1 13//1
f 17//2 19//2 16//2
f 19//3 21//3 18//3
f 21//2 23//2 20//2
f 23//3 24//3 22//3
f 24//4 15//4 14//4
f 13//5 16//5 18//5
f 18//5 22//5 14//5
f 22//5 18//5 20//5
f 18//5 14//5 13//5
f 21//6 19//6 17//6
f 15//6 24//6 21//6
f 23//6 21//6 24//6
f 17//6 15//6 21//6
f 25//1 26//1 27//1
f 28//4 25//4 29//4
f 30//1 28//1 31//1
f 32//2 30//2 33//2
f 34//3 32//3 35//3
f 26//4 34//4 36//4
f 27//1 29//1 25//1
f 29//4 31//4 28//4
f 31//1 33//1 30//1
f 33//2 35//2 32//2
f 35//3 36//3 34//3
f 36//4 27//4 26//4
f 32//5 25//5 30//5
f 25//5 32//5 34//5
f 30//5 25//5 28//5
f 26//5 25//5 34//5
f 33//6 29//6 35//6
f 36//6 35//6 29//6
f 31//6 29//6 33//6
f 36//6 29//6 27//6
f 37//1 38//1 39//1
f 40//2 37//2 41//2
f 42//3 40//3 43//3
f 44//4 42//4 45//4
f 46//3 44//3 47//3
f 38//4 46//4 48//4
f 39//1 41//1 37//1
f 41//2 43//2 40//2
f 43//3 45//3 42//3
f 45//4 47//4 44//4
f 47//3 48//3 46//3
f 48//4 39//4 38//4
f 37//5 40//5 44//5
f 44//5 40//5 42//5
f 44//5 46//5 38//5
f 44//5 38//5 37//5
f 47//6 43//6 41//6
f 45//6 43//6 47//6
f 39//6 48//6 47//6
f 41//6 39//6 47//6
