# Blender 4.5.3 LTS
# www.blender.org
o sky130_fd_sc_hd__fa_1.gds_li1
v 1.079990 2.600000 -1.274990
v 1.239990 2.600000 -1.274990
v 1.239990 2.500000 -1.274990
v 1.079990 2.600000 -1.324990
v 1.079990 2.500000 -1.274990
v 0.910010 2.600000 -1.324990
v 1.079990 2.500000 -1.324990
v 0.910010 2.600000 -0.995010
v 0.910010 2.500000 -1.324990
v 1.239990 2.600000 -0.995010
v 0.910010 2.500000 -0.995010
v 1.239990 2.500000 -0.995010
v 0.259990 2.600000 -0.829990
v 0.344990 2.600000 -0.829990
v 0.344990 2.500000 -0.829990
v 0.259990 2.600000 -1.485010
v 0.259990 2.500000 -0.829990
v 0.344990 2.600000 -1.485010
v 0.259990 2.500000 -1.485010
v 0.344990 2.600000 -2.464990
v 0.344990 2.500000 -1.485010
v 0.085010 2.600000 -2.464990
v 0.344990 2.500000 -2.464990
v 0.085010 2.600000 -0.255010
v 0.085010 2.500000 -2.464990
v 0.344990 2.600000 -0.255010
v 0.085010 2.500000 -0.255010
v 0.344990 2.500000 -0.255010
v 0.000010 2.600000 -2.804990
v 7.359990 2.600000 -2.804990
v 7.359990 2.500000 -2.804990
v 0.000010 2.600000 -2.635010
v 0.000010 2.500000 -2.804990
v 0.515010 2.600000 -2.635010
v 0.000010 2.500000 -2.635010
v 0.515010 2.600000 -2.150010
v 0.515010 2.500000 -2.635010
v 0.764990 2.600000 -2.150010
v 0.515010 2.500000 -2.150010
v 0.764990 2.600000 -2.635010
v 0.764990 2.500000 -2.150010
v 2.300010 2.600000 -2.635010
v 0.764990 2.500000 -2.635010
v 2.300010 2.600000 -2.275010
v 2.300010 2.500000 -2.635010
v 2.629990 2.600000 -2.275010
v 2.300010 2.500000 -2.275010
v 2.629990 2.600000 -2.635010
v 2.629990 2.500000 -2.275010
v 3.240010 2.600000 -2.635010
v 2.629990 2.500000 -2.635010
v 3.240010 2.600000 -2.255010
v 3.240010 2.500000 -2.635010
v 3.569990 2.600000 -2.255010
v 3.240010 2.500000 -2.255010
v 3.569990 2.600000 -2.635010
v 3.569990 2.500000 -2.255010
v 4.080010 2.600000 -2.635010
v 3.569990 2.500000 -2.635010
v 4.080010 2.600000 -2.275010
v 4.080010 2.500000 -2.635010
v 4.409990 2.600000 -2.275010
v 4.080010 2.500000 -2.275010
v 4.409990 2.600000 -2.635010
v 4.409990 2.500000 -2.275010
v 6.340010 2.600000 -2.635010
v 4.409990 2.500000 -2.635010
v 6.340010 2.600000 -2.275010
v 6.340010 2.500000 -2.635010
v 6.669990 2.600000 -2.275010
v 6.340010 2.500000 -2.275010
v 6.669990 2.600000 -2.635010
v 6.669990 2.500000 -2.275010
v 7.359990 2.600000 -2.635010
v 6.669990 2.500000 -2.635010
v 7.359990 2.500000 -2.635010
v 6.840010 2.600000 -2.464990
v 7.239990 2.600000 -2.464990
v 7.239990 2.500000 -2.464990
v 6.840010 2.600000 -1.485010
v 6.840010 2.500000 -2.464990
v 6.910010 2.600000 -1.485010
v 6.840010 2.500000 -1.485010
v 6.910010 2.600000 -0.809990
v 6.910010 2.500000 -1.485010
v 6.840010 2.600000 -0.809990
v 6.910010 2.500000 -0.809990
v 6.840010 2.600000 -0.255010
v 6.840010 2.500000 -0.809990
v 7.239990 2.600000 -0.255010
v 6.840010 2.500000 -0.255010
v 7.239990 2.500000 -0.255010
v 6.664990 2.600000 -1.324990
v 6.739990 2.600000 -1.324990
v 6.739990 2.500000 -1.324990
v 6.664990 2.600000 -2.104990
v 6.664990 2.500000 -1.324990
v 6.169990 2.600000 -2.104990
v 6.664990 2.500000 -2.104990
v 6.169990 2.600000 -2.464990
v 6.169990 2.500000 -2.104990
v 5.085010 2.600000 -2.464990
v 6.169990 2.500000 -2.464990
v 5.085010 2.600000 -2.125010
v 5.085010 2.500000 -2.464990
v 6.000010 2.600000 -2.125010
v 5.085010 2.500000 -2.125010
v 6.000010 2.600000 -1.935010
v 6.000010 2.500000 -2.125010
v 6.495010 2.600000 -1.935010
v 6.000010 2.500000 -1.935010
v 6.495010 2.600000 -0.784990
v 6.495010 2.500000 -1.935010
v 5.925010 2.600000 -0.784990
v 6.495010 2.500000 -0.784990
v 5.925010 2.600000 -0.504990
v 5.925010 2.500000 -0.784990
v 5.254990 2.600000 -0.504990
v 5.925010 2.500000 -0.504990
v 5.254990 2.600000 -0.594990
v 5.254990 2.500000 -0.504990
v 5.085010 2.600000 -0.594990
v 5.254990 2.500000 -0.594990
v 5.085010 2.600000 -0.255010
v 5.085010 2.500000 -0.594990
v 6.094990 2.600000 -0.255010
v 5.085010 2.500000 -0.255010
v 6.094990 2.600000 -0.615010
v 6.094990 2.500000 -0.255010
v 6.664990 2.600000 -0.615010
v 6.094990 2.500000 -0.615010
v 6.664990 2.600000 -0.995010
v 6.664990 2.500000 -0.615010
v 6.739990 2.600000 -0.995010
v 6.664990 2.500000 -0.995010
v 6.739990 2.500000 -0.995010
v 1.699990 2.600000 -1.445010
v 1.300010 2.600000 -1.445010
v 1.300010 2.500000 -1.445010
v 1.699990 2.600000 -1.879990
v 1.699990 2.500000 -1.445010
v 1.300010 2.600000 -1.879990
v 1.699990 2.500000 -1.879990
v 1.300010 2.500000 -1.879990
v 1.470010 2.600000 -0.934990
v 1.709990 2.600000 -0.934990
v 1.709990 2.500000 -0.934990
v 1.470010 2.600000 -0.804990
v 1.470010 2.500000 -0.934990
v 0.684990 2.600000 -0.804990
v 1.470010 2.500000 -0.804990
v 0.684990 2.600000 -1.625010
v 0.684990 2.500000 -0.804990
v 1.104990 2.600000 -1.625010
v 0.684990 2.500000 -1.625010
v 1.104990 2.600000 -2.065010
v 1.104990 2.500000 -1.625010
v 1.709990 2.600000 -2.065010
v 1.104990 2.500000 -2.065010
v 1.709990 2.600000 -2.464990
v 1.709990 2.500000 -2.065010
v 0.935010 2.600000 -2.464990
v 1.709990 2.500000 -2.464990
v 0.935010 2.600000 -1.944990
v 0.935010 2.500000 -2.464990
v 0.515010 2.600000 -1.944990
v 0.935010 2.500000 -1.944990
v 0.515010 2.600000 -1.324990
v 0.515010 2.500000 -1.944990
v 0.430010 2.600000 -1.324990
v 0.515010 2.500000 -1.324990
v 0.430010 2.600000 -0.995010
v 0.430010 2.500000 -1.324990
v 0.515010 2.600000 -0.995010
v 0.430010 2.500000 -0.995010
v 0.515010 2.600000 -0.635010
v 0.515010 2.500000 -0.995010
v 1.110010 2.600000 -0.635010
v 0.515010 2.500000 -0.635010
v 1.110010 2.600000 -0.255010
v 1.110010 2.500000 -0.635010
v 1.709990 2.600000 -0.255010
v 1.110010 2.500000 -0.255010
v 1.709990 2.500000 -0.255010
v 6.324990 2.600000 -1.035010
v 5.885010 2.600000 -1.035010
v 5.885010 2.500000 -1.035010
v 6.324990 2.600000 -1.274990
v 6.324990 2.500000 -1.035010
v 5.885010 2.600000 -1.274990
v 6.324990 2.500000 -1.274990
v 5.885010 2.500000 -1.274990
v 6.054990 2.600000 -1.445010
v 5.635010 2.600000 -1.445010
v 5.635010 2.500000 -1.445010
v 6.054990 2.600000 -1.764990
v 6.054990 2.500000 -1.445010
v 5.635010 2.600000 -1.764990
v 6.054990 2.500000 -1.764990
v 5.635010 2.500000 -1.764990
v 4.795010 2.600000 -1.124990
v 5.459990 2.600000 -1.124990
v 5.459990 2.500000 -1.124990
v 4.795010 2.600000 -0.955010
v 4.795010 2.500000 -1.124990
v 4.965010 2.600000 -0.955010
v 4.795010 2.500000 -0.955010
v 4.965010 2.600000 -0.765010
v 4.965010 2.500000 -0.955010
v 5.459990 2.600000 -0.765010
v 4.965010 2.500000 -0.765010
v 5.459990 2.500000 -0.765010
v 5.155010 2.600000 -1.954990
v 5.404990 2.600000 -1.954990
v 5.404990 2.500000 -1.954990
v 5.155010 2.600000 -1.684990
v 5.155010 2.500000 -1.954990
v 3.785010 2.600000 -1.684990
v 5.155010 2.500000 -1.684990
v 3.785010 2.600000 -1.249990
v 3.785010 2.500000 -1.684990
v 2.959990 2.600000 -1.249990
v 3.785010 2.500000 -1.249990
v 2.959990 2.600000 -1.764990
v 2.959990 2.500000 -1.249990
v 1.870010 2.600000 -1.764990
v 2.959990 2.500000 -1.764990
v 1.870010 2.600000 -1.274990
v 1.870010 2.500000 -1.764990
v 1.670010 2.600000 -1.274990
v 1.870010 2.500000 -1.274990
v 1.670010 2.600000 -1.105010
v 1.670010 2.500000 -1.274990
v 2.039990 2.600000 -1.105010
v 1.670010 2.500000 -1.105010
v 2.039990 2.600000 -1.595010
v 2.039990 2.500000 -1.105010
v 2.790010 2.600000 -1.595010
v 2.039990 2.500000 -1.595010
v 2.790010 2.600000 -0.965010
v 2.790010 2.500000 -1.595010
v 3.954990 2.600000 -0.965010
v 2.790010 2.500000 -0.965010
v 3.954990 2.600000 -1.515010
v 3.954990 2.500000 -0.965010
v 5.404990 2.600000 -1.515010
v 3.954990 2.500000 -1.515010
v 5.404990 2.500000 -1.515010
v 3.740010 2.600000 -0.784990
v 4.749990 2.600000 -0.784990
v 4.749990 2.500000 -0.784990
v 3.740010 2.600000 -0.255010
v 3.740010 2.500000 -0.784990
v 3.909990 2.600000 -0.255010
v 3.740010 2.500000 -0.255010
v 3.909990 2.600000 -0.615010
v 3.909990 2.500000 -0.255010
v 4.580010 2.600000 -0.615010
v 3.909990 2.500000 -0.615010
v 4.580010 2.600000 -0.255010
v 4.580010 2.500000 -0.615010
v 4.749990 2.600000 -0.255010
v 4.580010 2.500000 -0.255010
v 4.749990 2.500000 -0.255010
v 4.580010 2.600000 -2.464990
v 4.749990 2.600000 -2.464990
v 4.749990 2.500000 -2.464990
v 4.580010 2.600000 -2.104990
v 4.580010 2.500000 -2.464990
v 3.909990 2.600000 -2.104990
v 4.580010 2.500000 -2.104990
v 3.909990 2.600000 -2.464990
v 3.909990 2.500000 -2.104990
v 3.740010 2.600000 -2.464990
v 3.909990 2.500000 -2.464990
v 3.740010 2.600000 -1.935010
v 3.740010 2.500000 -2.464990
v 4.749990 2.600000 -1.935010
v 3.740010 2.500000 -1.935010
v 4.749990 2.500000 -1.935010
v 4.624990 2.600000 -0.955010
v 4.250010 2.600000 -0.955010
v 4.250010 2.500000 -0.955010
v 4.624990 2.600000 -1.274990
v 4.624990 2.500000 -0.955010
v 4.250010 2.600000 -1.274990
v 4.624990 2.500000 -1.274990
v 4.250010 2.500000 -1.274990
v 3.559990 2.600000 -1.435010
v 3.200010 2.600000 -1.435010
v 3.200010 2.500000 -1.435010
v 3.559990 2.600000 -1.764990
v 3.559990 2.500000 -1.435010
v 3.200010 2.600000 -1.764990
v 3.559990 2.500000 -1.764990
v 3.200010 2.500000 -1.764990
v 2.800010 2.600000 -2.464990
v 3.034990 2.600000 -2.464990
v 3.034990 2.500000 -2.464990
v 2.800010 2.600000 -2.104990
v 2.800010 2.500000 -2.464990
v 2.129990 2.600000 -2.104990
v 2.800010 2.500000 -2.104990
v 2.129990 2.600000 -2.464990
v 2.129990 2.500000 -2.104990
v 1.960010 2.600000 -2.464990
v 2.129990 2.500000 -2.464990
v 1.960010 2.600000 -1.935010
v 1.960010 2.500000 -2.464990
v 3.034990 2.600000 -1.935010
v 1.960010 2.500000 -1.935010
v 3.034990 2.500000 -1.935010
v 1.960010 2.600000 -0.784990
v 2.969990 2.600000 -0.784990
v 2.969990 2.500000 -0.784990
v 1.960010 2.600000 -0.255010
v 1.960010 2.500000 -0.784990
v 2.129990 2.600000 -0.255010
v 1.960010 2.500000 -0.255010
v 2.129990 2.600000 -0.615010
v 2.129990 2.500000 -0.255010
v 2.800010 2.600000 -0.615010
v 2.129990 2.500000 -0.615010
v 2.800010 2.600000 -0.255010
v 2.800010 2.500000 -0.615010
v 2.969990 2.600000 -0.255010
v 2.800010 2.500000 -0.255010
v 2.969990 2.500000 -0.255010
v 2.619990 2.600000 -1.030010
v 2.230010 2.600000 -1.030010
v 2.230010 2.500000 -1.030010
v 2.619990 2.600000 -1.359990
v 2.619990 2.500000 -1.030010
v 2.230010 2.600000 -1.359990
v 2.619990 2.500000 -1.359990
v 2.230010 2.500000 -1.359990
v 6.594990 2.600000 -0.084990
v 7.359990 2.600000 -0.084990
v 7.359990 2.500000 -0.084990
v 6.594990 2.600000 -0.444990
v 6.594990 2.500000 -0.084990
v 6.265010 2.600000 -0.444990
v 6.594990 2.500000 -0.444990
v 6.265010 2.600000 -0.084990
v 6.265010 2.500000 -0.444990
v 4.409990 2.600000 -0.084990
v 6.265010 2.500000 -0.084990
v 4.409990 2.600000 -0.444990
v 4.409990 2.500000 -0.084990
v 4.080010 2.600000 -0.444990
v 4.409990 2.500000 -0.444990
v 4.080010 2.600000 -0.084990
v 4.080010 2.500000 -0.444990
v 3.569990 2.600000 -0.084990
v 4.080010 2.500000 -0.084990
v 3.569990 2.600000 -0.489990
v 3.569990 2.500000 -0.084990
v 3.240010 2.600000 -0.489990
v 3.569990 2.500000 -0.489990
v 3.240010 2.600000 -0.084990
v 3.240010 2.500000 -0.489990
v 2.629990 2.600000 -0.084990
v 3.240010 2.500000 -0.084990
v 2.629990 2.600000 -0.444990
v 2.629990 2.500000 -0.084990
v 2.300010 2.600000 -0.444990
v 2.629990 2.500000 -0.444990
v 2.300010 2.600000 -0.084990
v 2.300010 2.500000 -0.444990
v 0.844990 2.600000 -0.084990
v 2.300010 2.500000 -0.084990
v 0.844990 2.600000 -0.464990
v 0.844990 2.500000 -0.084990
v 0.515010 2.600000 -0.464990
v 0.844990 2.500000 -0.464990
v 0.515010 2.600000 -0.084990
v 0.515010 2.500000 -0.464990
v 0.000010 2.600000 -0.084990
v 0.515010 2.500000 -0.084990
v 0.000010 2.600000 0.084990
v 0.000010 2.500000 -0.084990
v 7.359990 2.600000 0.084990
v 0.000010 2.500000 0.084990
v 7.359990 2.500000 0.084990
vn -0.0000 -0.0000 -1.0000
vn 1.0000 -0.0000 -0.0000
vn -1.0000 -0.0000 -0.0000
vn -0.0000 -0.0000 1.0000
vn -0.0000 1.0000 -0.0000
vn -0.0000 -1.0000 -0.0000
s 0
f 1//1 2//1 3//1
f 4//2 1//2 5//2
f 6//1 4//1 7//1
f 8//3 6//3 9//3
f 10//4 8//4 11//4
f 2//2 10//2 12//2
f 3//1 5//1 1//1
f 5//2 7//2 4//2
f 7//1 9//1 6//1
f 9//3 11//3 8//3
f 11//4 12//4 10//4
f 12//2 3//2 2//2
f 8//5 1//5 6//5
f 1//5 8//5 10//5
f 6//5 1//5 4//5
f 2//5 1//5 10//5
f 9//6 5//6 11//6
f 12//6 11//6 5//6
f 7//6 5//6 9//6
f 12//6 5//6 3//6
f 13//1 14//1 15//1
f 16//2 13//2 17//2
f 18//4 16//4 19//4
f 20//2 18//2 21//2
f 22//1 20//1 23//1
f 24//3 22//3 25//3
f 26//4 24//4 27//4
f 14//2 26//2 28//2
f 15//1 17//1 13//1
f 17//2 19//2 16//2
f 19//4 21//4 18//4
f 21//2 23//2 20//2
f 23//1 25//1 22//1
f 25//3 27//3 24//3
f 27//4 28//4 26//4
f 28//2 15//2 14//2
f 24//5 13//5 16//5
f 13//5 24//5 26//5
f 22//5 16//5 20//5
f 16//5 22//5 24//5
f 26//5 14//5 13//5
f 18//5 20//5 16//5
f 19//6 17//6 27//6
f 28//6 27//6 17//6
f 23//6 19//6 25//6
f 27//6 25//6 19//6
f 17//6 15//6 28//6
f 19//6 23//6 21//6
f 29//1 30//1 31//1
f 32//3 29//3 33//3
f 34//4 32//4 35//4
f 36//3 34//3 37//3
f 38//4 36//4 39//4
f 40//2 38//2 41//2
f 42//4 40//4 43//4
f 44//3 42//3 45//3
f 46//4 44//4 47//4
f 48//2 46//2 49//2
f 50//4 48//4 51//4
f 52//3 50//3 53//3
f 54//4 52//4 55//4
f 56//2 54//2 57//2
f 58//4 56//4 59//4
f 60//3 58//3 61//3
f 62//4 60//4 63//4
f 64//2 62//2 65//2
f 66//4 64//4 67//4
f 68//3 66//3 69//3
f 70//4 68//4 71//4
f 72//2 70//2 73//2
f 74//4 72//4 75//4
f 30//2 74//2 76//2
f 31//1 33//1 29//1
f 33//3 35//3 32//3
f 35//4 37//4 34//4
f 37//3 39//3 36//3
f 39//4 41//4 38//4
f 41//2 43//2 40//2
f 43//4 45//4 42//4
f 45//3 47//3 44//3
f 47//4 49//4 46//4
f 49//2 51//2 48//2
f 51//4 53//4 50//4
f 53//3 55//3 52//3
f 55//4 57//4 54//4
f 57//2 59//2 56//2
f 59//4 61//4 58//4
f 61//3 63//3 60//3
f 63//4 65//4 62//4
f 65//2 67//2 64//2
f 67//4 69//4 66//4
f 69//3 71//3 68//3
f 71//4 73//4 70//4
f 73//2 75//2 72//2
f 75//4 76//4 74//4
f 76//2 31//2 30//2
f 38//5 40//5 36//5
f 48//5 44//5 46//5
f 29//5 34//5 40//5
f 34//5 29//5 32//5
f 40//5 34//5 36//5
f 29//5 40//5 42//5
f 42//5 48//5 29//5
f 48//5 42//5 44//5
f 48//5 50//5 29//5
f 29//5 50//5 56//5
f 52//5 54//5 50//5
f 54//5 56//5 50//5
f 64//5 60//5 62//5
f 72//5 68//5 70//5
f 58//5 64//5 30//5
f 64//5 58//5 60//5
f 64//5 66//5 30//5
f 72//5 74//5 30//5
f 72//5 30//5 66//5
f 66//5 68//5 72//5
f 58//5 30//5 56//5
f 56//5 30//5 29//5
f 39//6 43//6 41//6
f 49//6 47//6 51//6
f 43//6 37//6 33//6
f 35//6 33//6 37//6
f 39//6 37//6 43//6
f 45//6 43//6 33//6
f 33//6 51//6 45//6
f 47//6 45//6 51//6
f 33//6 53//6 51//6
f 59//6 53//6 33//6
f 53//6 57//6 55//6
f 53//6 59//6 57//6
f 65//6 63//6 67//6
f 73//6 71//6 75//6
f 31//6 67//6 61//6
f 63//6 61//6 67//6
f 31//6 69//6 67//6
f 31//6 76//6 75//6
f 69//6 31//6 75//6
f 75//6 71//6 69//6
f 59//6 31//6 61//6
f 33//6 31//6 59//6
f 77//1 78//1 79//1
f 80//3 77//3 81//3
f 82//4 80//4 83//4
f 84//3 82//3 85//3
f 86//1 84//1 87//1
f 88//3 86//3 89//3
f 90//4 88//4 91//4
f 78//2 90//2 92//2
f 79//1 81//1 77//1
f 81//3 83//3 80//3
f 83//4 85//4 82//4
f 85//3 87//3 84//3
f 87//1 89//1 86//1
f 89//3 91//3 88//3
f 91//4 92//4 90//4
f 92//2 79//2 78//2
f 86//5 88//5 84//5
f 77//5 80//5 82//5
f 84//5 90//5 82//5
f 90//5 84//5 88//5
f 82//5 78//5 77//5
f 78//5 82//5 90//5
f 87//6 91//6 89//6
f 85//6 83//6 81//6
f 85//6 92//6 87//6
f 91//6 87//6 92//6
f 81//6 79//6 85//6
f 92//6 85//6 79//6
f 93//1 94//1 95//1
f 96//2 93//2 97//2
f 98//1 96//1 99//1
f 100//2 98//2 101//2
f 102//1 100//1 103//1
f 104//3 102//3 105//3
f 106//4 104//4 107//4
f 108//3 106//3 109//3
f 110//4 108//4 111//4
f 112//3 110//3 113//3
f 114//1 112//1 115//1
f 116//3 114//3 117//3
f 118//1 116//1 119//1
f 120//2 118//2 121//2
f 122//1 120//1 123//1
f 124//3 122//3 125//3
f 126//4 124//4 127//4
f 128//2 126//2 129//2
f 130//4 128//4 131//4
f 132//2 130//2 133//2
f 134//4 132//4 135//4
f 94//2 134//2 136//2
f 95//1 97//1 93//1
f 97//2 99//2 96//2
f 99//1 101//1 98//1
f 101//2 103//2 100//2
f 103//1 105//1 102//1
f 105//3 107//3 104//3
f 107//4 109//4 106//4
f 109//3 111//3 108//3
f 111//4 113//4 110//4
f 113//3 115//3 112//3
f 115//1 117//1 114//1
f 117//3 119//3 116//3
f 119//1 121//1 118//1
f 121//2 123//2 120//2
f 123//1 125//1 122//1
f 125//3 127//3 124//3
f 127//4 129//4 126//4
f 129//2 131//2 128//2
f 131//4 133//4 130//4
f 133//2 135//2 132//2
f 135//4 136//4 134//4
f 136//2 95//2 94//2
f 122//5 124//5 118//5
f 118//5 126//5 116//5
f 126//5 118//5 124//5
f 114//5 116//5 128//5
f 122//5 118//5 120//5
f 102//5 104//5 106//5
f 98//5 106//5 108//5
f 102//5 106//5 100//5
f 126//5 128//5 116//5
f 93//5 110//5 112//5
f 112//5 128//5 130//5
f 132//5 134//5 94//5
f 130//5 132//5 112//5
f 93//5 112//5 132//5
f 98//5 108//5 110//5
f 96//5 98//5 110//5
f 100//5 106//5 98//5
f 96//5 110//5 93//5
f 94//5 93//5 132//5
f 128//5 112//5 114//5
f 121//6 127//6 125//6
f 119//6 129//6 121//6
f 127//6 121//6 129//6
f 131//6 119//6 117//6
f 123//6 121//6 125//6
f 109//6 107//6 105//6
f 111//6 109//6 101//6
f 103//6 109//6 105//6
f 119//6 131//6 129//6
f 115//6 113//6 97//6
f 133//6 131//6 115//6
f 95//6 136//6 135//6
f 115//6 135//6 133//6
f 135//6 115//6 97//6
f 113//6 111//6 101//6
f 113//6 101//6 99//6
f 101//6 109//6 103//6
f 97//6 113//6 99//6
f 135//6 97//6 95//6
f 117//6 115//6 131//6
f 137//4 138//4 139//4
f 140//2 137//2 141//2
f 142//1 140//1 143//1
f 138//3 142//3 144//3
f 139//4 141//4 137//4
f 141//2 143//2 140//2
f 143//1 144//1 142//1
f 144//3 139//3 138//3
f 142//5 138//5 137//5
f 137//5 140//5 142//5
f 141//6 139//6 144//6
f 144//6 143//6 141//6
f 145//1 146//1 147//1
f 148//3 145//3 149//3
f 150//1 148//1 151//1
f 152//2 150//2 153//2
f 154//4 152//4 155//4
f 156//2 154//2 157//2
f 158//4 156//4 159//4
f 160//2 158//2 161//2
f 162//1 160//1 163//1
f 164//3 162//3 165//3
f 166//1 164//1 167//1
f 168//3 166//3 169//3
f 170//1 168//1 171//1
f 172//3 170//3 173//3
f 174//4 172//4 175//4
f 176//3 174//3 177//3
f 178//4 176//4 179//4
f 180//3 178//3 181//3
f 182//4 180//4 183//4
f 146//2 182//2 184//2
f 147//1 149//1 145//1
f 149//3 151//3 148//3
f 151//1 153//1 150//1
f 153//2 155//2 152//2
f 155//4 157//4 154//4
f 157//2 159//2 156//2
f 159//4 161//4 158//4
f 161//2 163//2 160//2
f 163//1 165//1 162//1
f 165//3 167//3 164//3
f 167//1 169//1 166//1
f 169//3 171//3 168//3
f 171//1 173//1 170//1
f 173//3 175//3 172//3
f 175//4 177//4 174//4
f 177//3 179//3 176//3
f 179//4 181//4 178//4
f 181//3 183//3 180//3
f 183//4 184//4 182//4
f 184//2 147//2 146//2
f 170//5 172//5 174//5
f 176//5 150//5 174//5
f 150//5 176//5 178//5
f 170//5 174//5 168//5
f 168//5 174//5 150//5
f 166//5 168//5 152//5
f 152//5 168//5 150//5
f 162//5 164//5 156//5
f 164//5 166//5 152//5
f 152//5 154//5 164//5
f 150//5 178//5 148//5
f 178//5 180//5 182//5
f 145//5 148//5 146//5
f 182//5 148//5 178//5
f 146//5 148//5 182//5
f 154//5 156//5 164//5
f 158//5 160//5 156//5
f 156//5 160//5 162//5
f 177//6 175//6 173//6
f 177//6 153//6 179//6
f 181//6 179//6 153//6
f 171//6 177//6 173//6
f 153//6 177//6 171//6
f 155//6 171//6 169//6
f 153//6 171//6 155//6
f 159//6 167//6 165//6
f 155//6 169//6 167//6
f 167//6 157//6 155//6
f 151//6 181//6 153//6
f 184//6 183//6 181//6
f 147//6 151//6 149//6
f 181//6 151//6 184//6
f 184//6 151//6 147//6
f 167//6 159//6 157//6
f 159//6 163//6 161//6
f 165//6 163//6 159//6
f 185//4 186//4 187//4
f 188//2 185//2 189//2
f 190//1 188//1 191//1
f 186//3 190//3 192//3
f 187//4 189//4 185//4
f 189//2 191//2 188//2
f 191//1 192//1 190//1
f 192//3 187//3 186//3
f 190//5 186//5 185//5
f 185//5 188//5 190//5
f 189//6 187//6 192//6
f 192//6 191//6 189//6
f 193//4 194//4 195//4
f 196//2 193//2 197//2
f 198//1 196//1 199//1
f 194//3 198//3 200//3
f 195//4 197//4 193//4
f 197//2 199//2 196//2
f 199//1 200//1 198//1
f 200//3 195//3 194//3
f 198//5 194//5 193//5
f 193//5 196//5 198//5
f 197//6 195//6 200//6
f 200//6 199//6 197//6
f 201//1 202//1 203//1
f 204//3 201//3 205//3
f 206//4 204//4 207//4
f 208//3 206//3 209//3
f 210//4 208//4 211//4
f 202//2 210//2 212//2
f 203//1 205//1 201//1
f 205//3 207//3 204//3
f 207//4 209//4 206//4
f 209//3 211//3 208//3
f 211//4 212//4 210//4
f 212//2 203//2 202//2
f 201//5 204//5 206//5
f 206//5 210//5 202//5
f 210//5 206//5 208//5
f 206//5 202//5 201//5
f 209//6 207//6 205//6
f 203//6 212//6 209//6
f 211//6 209//6 212//6
f 205//6 203//6 209//6
f 213//1 214//1 215//1
f 216//3 213//3 217//3
f 218//1 216//1 219//1
f 220//3 218//3 221//3
f 222//1 220//1 223//1
f 224//2 222//2 225//2
f 226//1 224//1 227//1
f 228//3 226//3 229//3
f 230//1 228//1 231//1
f 232//3 230//3 233//3
f 234//4 232//4 235//4
f 236//2 234//2 237//2
f 238//4 236//4 239//4
f 240//3 238//3 241//3
f 242//4 240//4 243//4
f 244//2 242//2 245//2
f 246//4 244//4 247//4
f 214//2 246//2 248//2
f 215//1 217//1 213//1
f 217//3 219//3 216//3
f 219//1 221//1 218//1
f 221//3 223//3 220//3
f 223//1 225//1 222//1
f 225//2 227//2 224//2
f 227//1 229//1 226//1
f 229//3 231//3 228//3
f 231//1 233//1 230//1
f 233//3 235//3 232//3
f 235//4 237//4 234//4
f 237//2 239//2 236//2
f 239//4 241//4 238//4
f 241//3 243//3 240//3
f 243//4 245//4 242//4
f 245//2 247//2 244//2
f 247//4 248//4 246//4
f 248//2 215//2 214//2
f 228//5 232//5 234//5
f 222//5 240//5 242//5
f 222//5 238//5 240//5
f 228//5 230//5 232//5
f 226//5 236//5 238//5
f 236//5 226//5 228//5
f 236//5 228//5 234//5
f 226//5 238//5 224//5
f 222//5 224//5 238//5
f 220//5 242//5 244//5
f 244//5 246//5 216//5
f 220//5 244//5 218//5
f 216//5 214//5 213//5
f 214//5 216//5 246//5
f 218//5 244//5 216//5
f 220//5 222//5 242//5
f 237//6 235//6 231//6
f 245//6 243//6 225//6
f 243//6 241//6 225//6
f 235//6 233//6 231//6
f 241//6 239//6 229//6
f 231//6 229//6 239//6
f 237//6 231//6 239//6
f 227//6 241//6 229//6
f 241//6 227//6 225//6
f 247//6 245//6 223//6
f 219//6 248//6 247//6
f 221//6 247//6 223//6
f 217//6 215//6 219//6
f 248//6 219//6 215//6
f 219//6 247//6 221//6
f 245//6 225//6 223//6
f 249//1 250//1 251//1
f 252//3 249//3 253//3
f 254//4 252//4 255//4
f 256//2 254//2 257//2
f 258//4 256//4 259//4
f 260//3 258//3 261//3
f 262//4 260//4 263//4
f 250//2 262//2 264//2
f 251//1 253//1 249//1
f 253//3 255//3 252//3
f 255//4 257//4 254//4
f 257//2 259//2 256//2
f 259//4 261//4 258//4
f 261//3 263//3 260//3
f 263//4 264//4 262//4
f 264//2 251//2 250//2
f 252//5 254//5 256//5
f 249//5 256//5 258//5
f 256//5 249//5 252//5
f 260//5 262//5 258//5
f 258//5 250//5 249//5
f 250//5 258//5 262//5
f 259//6 257//6 255//6
f 261//6 259//6 253//6
f 255//6 253//6 259//6
f 261//6 264//6 263//6
f 253//6 251//6 261//6
f 264//6 261//6 251//6
f 265//1 266//1 267//1
f 268//3 265//3 269//3
f 270//1 268//1 271//1
f 272//2 270//2 273//2
f 274//1 272//1 275//1
f 276//3 274//3 277//3
f 278//4 276//4 279//4
f 266//2 278//2 280//2
f 267//1 269//1 265//1
f 269//3 271//3 268//3
f 271//1 273//1 270//1
f 273//2 275//2 272//2
f 275//1 277//1 274//1
f 277//3 279//3 276//3
f 279//4 280//4 278//4
f 280//2 267//2 266//2
f 276//5 270//5 274//5
f 270//5 276//5 268//5
f 272//5 274//5 270//5
f 268//5 278//5 266//5
f 278//5 268//5 276//5
f 266//5 265//5 268//5
f 277//6 273//6 279//6
f 271//6 279//6 273//6
f 273//6 277//6 275//6
f 267//6 280//6 271//6
f 279//6 271//6 280//6
f 271//6 269//6 267//6
f 281//4 282//4 283//4
f 284//2 281//2 285//2
f 286//1 284//1 287//1
f 282//3 286//3 288//3
f 283//4 285//4 281//4
f 285//2 287//2 284//2
f 287//1 288//1 286//1
f 288//3 283//3 282//3
f 286//5 282//5 281//5
f 281//5 284//5 286//5
f 285//6 283//6 288//6
f 288//6 287//6 285//6
f 289//4 290//4 291//4
f 292//2 289//2 293//2
f 294//1 292//1 295//1
f 290//3 294//3 296//3
f 291//4 293//4 289//4
f 293//2 295//2 292//2
f 295//1 296//1 294//1
f 296//3 291//3 290//3
f 294//5 290//5 289//5
f 289//5 292//5 294//5
f 293//6 291//6 296//6
f 296//6 295//6 293//6
f 297//1 298//1 299//1
f 300//3 297//3 301//3
f 302//1 300//1 303//1
f 304//2 302//2 305//2
f 306//1 304//1 307//1
f 308//3 306//3 309//3
f 310//4 308//4 311//4
f 298//2 310//2 312//2
f 299//1 301//1 297//1
f 301//3 303//3 300//3
f 303//1 305//1 302//1
f 305//2 307//2 304//2
f 307//1 309//1 306//1
f 309//3 311//3 308//3
f 311//4 312//4 310//4
f 312//2 299//2 298//2
f 308//5 302//5 306//5
f 302//5 308//5 300//5
f 304//5 306//5 302//5
f 300//5 310//5 298//5
f 310//5 300//5 308//5
f 298//5 297//5 300//5
f 309//6 305//6 311//6
f 303//6 311//6 305//6
f 305//6 309//6 307//6
f 299//6 312//6 303//6
f 311//6 303//6 312//6
f 303//6 301//6 299//6
f 313//1 314//1 315//1
f 316//3 313//3 317//3
f 318//4 316//4 319//4
f 320//2 318//2 321//2
f 322//4 320//4 323//4
f 324//3 322//3 325//3
f 326//4 324//4 327//4
f 314//2 326//2 328//2
f 315//1 317//1 313//1
f 317//3 319//3 316//3
f 319//4 321//4 318//4
f 321//2 323//2 320//2
f 323//4 325//4 322//4
f 325//3 327//3 324//3
f 327//4 328//4 326//4
f 328//2 315//2 314//2
f 316//5 318//5 320//5
f 313//5 320//5 322//5
f 320//5 313//5 316//5
f 324//5 326//5 322//5
f 322//5 314//5 313//5
f 314//5 322//5 326//5
f 323//6 321//6 319//6
f 325//6 323//6 317//6
f 319//6 317//6 323//6
f 325//6 328//6 327//6
f 317//6 315//6 325//6
f 328//6 325//6 315//6
f 329//4 330//4 331//4
f 332//2 329//2 333//2
f 334//1 332//1 335//1
f 330//3 334//3 336//3
f 331//4 333//4 329//4
f 333//2 335//2 332//2
f 335//1 336//1 334//1
f 336//3 331//3 330//3
f 334//5 330//5 329//5
f 329//5 332//5 334//5
f 333//6 331//6 336//6
f 336//6 335//6 333//6
f 337//1 338//1 339//1
f 340//2 337//2 341//2
f 342//1 340//1 343//1
f 344//3 342//3 345//3
f 346//1 344//1 347//1
f 348//2 346//2 349//2
f 350//1 348//1 351//1
f 352//3 350//3 353//3
f 354//1 352//1 355//1
f 356//2 354//2 357//2
f 358//1 356//1 359//1
f 360//3 358//3 361//3
f 362//1 360//1 363//1
f 364//2 362//2 365//2
f 366//1 364//1 367//1
f 368//3 366//3 369//3
f 370//1 368//1 371//1
f 372//2 370//2 373//2
f 374//1 372//1 375//1
f 376//3 374//3 377//3
f 378//1 376//1 379//1
f 380//3 378//3 381//3
f 382//4 380//4 383//4
f 338//2 382//2 384//2
f 339//1 341//1 337//1
f 341//2 343//2 340//2
f 343//1 345//1 342//1
f 345//3 347//3 344//3
f 347//1 349//1 346//1
f 349//2 351//2 348//2
f 351//1 353//1 350//1
f 353//3 355//3 352//3
f 355//1 357//1 354//1
f 357//2 359//2 356//2
f 359//1 361//1 358//1
f 361//3 363//3 360//3
f 363//1 365//1 362//1
f 365//2 367//2 364//2
f 367//1 369//1 366//1
f 369//3 371//3 368//3
f 371//1 373//1 370//1
f 373//2 375//2 372//2
f 375//1 377//1 374//1
f 377//3 379//3 376//3
f 379//1 381//1 378//1
f 381//3 383//3 380//3
f 383//4 384//4 382//4
f 384//2 339//2 338//2
f 380//5 376//5 378//5
f 376//5 380//5 370//5
f 368//5 370//5 380//5
f 362//5 368//5 380//5
f 368//5 362//5 364//5
f 380//5 360//5 362//5
f 376//5 370//5 372//5
f 372//5 374//5 376//5
f 364//5 366//5 368//5
f 358//5 360//5 354//5
f 380//5 354//5 360//5
f 352//5 354//5 382//5
f 346//5 352//5 382//5
f 352//5 346//5 348//5
f 344//5 382//5 337//5
f 382//5 344//5 346//5
f 337//5 382//5 338//5
f 344//5 337//5 340//5
f 354//5 380//5 382//5
f 350//5 352//5 348//5
f 344//5 340//5 342//5
f 354//5 356//5 358//5
f 381//6 379//6 383//6
f 373//6 383//6 379//6
f 383//6 373//6 371//6
f 383//6 371//6 365//6
f 367//6 365//6 371//6
f 365//6 363//6 383//6
f 375//6 373//6 379//6
f 379//6 377//6 375//6
f 371//6 369//6 367//6
f 357//6 363//6 361//6
f 363//6 357//6 383//6
f 384//6 357//6 355//6
f 384//6 355//6 349//6
f 351//6 349//6 355//6
f 341//6 384//6 347//6
f 349//6 347//6 384//6
f 339//6 384//6 341//6
f 343//6 341//6 347//6
f 384//6 383//6 357//6
f 351//6 355//6 353//6
f 345//6 343//6 347//6
f 361//6 359//6 357//6
