# Blender 4.5.3 LTS
# www.blender.org
o sky130_fd_sc_hd__fa_1.gds_licon
v 4.749990 2.100000 -2.190010
v 4.580010 2.100000 -2.190010
v 4.580010 2.000000 -2.190010
v 4.749990 2.100000 -2.359990
v 4.749990 2.000000 -2.190010
v 4.580010 2.100000 -2.359990
v 4.749990 2.000000 -2.359990
v 4.580010 2.000000 -2.359990
v 4.544990 2.100000 -0.955010
v 4.375010 2.100000 -0.955010
v 4.375010 2.000000 -0.955010
v 4.544990 2.100000 -1.124990
v 4.544990 2.000000 -0.955010
v 4.375010 2.100000 -1.124990
v 4.544990 2.000000 -1.124990
v 4.375010 2.000000 -1.124990
v 4.329990 2.100000 -0.275010
v 4.160010 2.100000 -0.275010
v 4.160010 2.000000 -0.275010
v 4.329990 2.100000 -0.444990
v 4.329990 2.000000 -0.275010
v 4.160010 2.100000 -0.444990
v 4.329990 2.000000 -0.444990
v 4.160010 2.000000 -0.444990
v 4.329990 2.100000 -2.275010
v 4.160010 2.100000 -2.275010
v 4.160010 2.000000 -2.275010
v 4.329990 2.100000 -2.444990
v 4.329990 2.000000 -2.275010
v 4.160010 2.100000 -2.444990
v 4.329990 2.000000 -2.444990
v 4.160010 2.000000 -2.444990
v 4.119990 2.100000 -1.515010
v 3.950010 2.100000 -1.515010
v 3.950010 2.000000 -1.515010
v 4.119990 2.100000 -1.684990
v 4.119990 2.000000 -1.515010
v 3.950010 2.100000 -1.684990
v 4.119990 2.000000 -1.684990
v 3.950010 2.000000 -1.684990
v 3.909990 2.100000 -0.360010
v 3.740010 2.100000 -0.360010
v 3.740010 2.000000 -0.360010
v 3.909990 2.100000 -0.529990
v 3.909990 2.000000 -0.360010
v 3.740010 2.100000 -0.529990
v 3.909990 2.000000 -0.529990
v 3.740010 2.000000 -0.529990
v 3.909990 2.100000 -2.190010
v 3.740010 2.100000 -2.190010
v 3.740010 2.000000 -2.190010
v 3.909990 2.100000 -2.359990
v 3.909990 2.000000 -2.190010
v 3.740010 2.100000 -2.359990
v 3.909990 2.000000 -2.359990
v 3.740010 2.000000 -2.359990
v 3.534990 2.100000 -1.515010
v 3.365010 2.100000 -1.515010
v 3.365010 2.000000 -1.515010
v 3.534990 2.100000 -1.684990
v 3.534990 2.000000 -1.515010
v 3.365010 2.100000 -1.684990
v 3.534990 2.000000 -1.684990
v 3.365010 2.000000 -1.684990
v 3.489990 2.100000 -0.320010
v 3.320010 2.100000 -0.320010
v 3.320010 2.000000 -0.320010
v 3.489990 2.100000 -0.489990
v 3.489990 2.000000 -0.320010
v 3.320010 2.100000 -0.489990
v 3.489990 2.000000 -0.489990
v 3.320010 2.000000 -0.489990
v 3.489990 2.100000 -2.255010
v 3.320010 2.100000 -2.255010
v 3.320010 2.000000 -2.255010
v 3.489990 2.100000 -2.424990
v 3.489990 2.000000 -2.255010
v 3.320010 2.100000 -2.424990
v 3.489990 2.000000 -2.424990
v 3.320010 2.000000 -2.424990
v 2.969990 2.100000 -0.360010
v 2.800010 2.100000 -0.360010
v 2.800010 2.000000 -0.360010
v 2.969990 2.100000 -0.529990
v 2.969990 2.000000 -0.360010
v 2.800010 2.100000 -0.529990
v 2.969990 2.000000 -0.529990
v 2.800010 2.000000 -0.529990
v 2.969990 2.100000 -2.190010
v 2.800010 2.100000 -2.190010
v 2.800010 2.000000 -2.190010
v 2.969990 2.100000 -2.359990
v 2.969990 2.000000 -2.190010
v 2.800010 2.100000 -2.359990
v 2.969990 2.000000 -2.359990
v 2.800010 2.000000 -2.359990
v 2.549990 2.100000 -0.275010
v 2.380010 2.100000 -0.275010
v 2.380010 2.000000 -0.275010
v 2.549990 2.100000 -0.444990
v 2.549990 2.000000 -0.275010
v 2.380010 2.100000 -0.444990
v 2.549990 2.000000 -0.444990
v 2.380010 2.000000 -0.444990
v 2.549990 2.100000 -2.275010
v 2.380010 2.100000 -2.275010
v 2.380010 2.000000 -2.275010
v 2.549990 2.100000 -2.444990
v 2.549990 2.000000 -2.275010
v 2.380010 2.100000 -2.444990
v 2.549990 2.000000 -2.444990
v 2.380010 2.000000 -2.444990
v 2.399990 2.100000 -1.110010
v 2.230010 2.100000 -1.110010
v 2.230010 2.000000 -1.110010
v 2.399990 2.100000 -1.279990
v 2.399990 2.000000 -1.110010
v 2.230010 2.100000 -1.279990
v 2.399990 2.000000 -1.279990
v 2.230010 2.000000 -1.279990
v 2.129990 2.100000 -0.360010
v 1.960010 2.100000 -0.360010
v 1.960010 2.000000 -0.360010
v 2.129990 2.100000 -0.529990
v 2.129990 2.000000 -0.360010
v 1.960010 2.100000 -0.529990
v 2.129990 2.000000 -0.529990
v 1.960010 2.000000 -0.529990
v 2.129990 2.100000 -2.190010
v 1.960010 2.100000 -2.190010
v 1.960010 2.000000 -2.190010
v 2.129990 2.100000 -2.359990
v 2.129990 2.000000 -2.190010
v 1.960010 2.100000 -2.359990
v 2.129990 2.000000 -2.359990
v 1.960010 2.000000 -2.359990
v 1.919990 2.100000 -1.105010
v 1.750010 2.100000 -1.105010
v 1.750010 2.000000 -1.105010
v 1.919990 2.100000 -1.274990
v 1.919990 2.000000 -1.105010
v 1.750010 2.100000 -1.274990
v 1.919990 2.000000 -1.274990
v 1.750010 2.000000 -1.274990
v 1.709990 2.100000 -0.360010
v 1.540010 2.100000 -0.360010
v 1.540010 2.000000 -0.360010
v 1.709990 2.100000 -0.529990
v 1.709990 2.000000 -0.360010
v 1.540010 2.100000 -0.529990
v 1.709990 2.000000 -0.529990
v 1.540010 2.000000 -0.529990
v 1.709990 2.100000 -2.190010
v 1.540010 2.100000 -2.190010
v 1.540010 2.000000 -2.190010
v 1.709990 2.100000 -2.359990
v 1.709990 2.000000 -2.190010
v 1.540010 2.100000 -2.359990
v 1.709990 2.000000 -2.359990
v 1.540010 2.000000 -2.359990
v 1.469990 2.100000 -1.630010
v 1.300010 2.100000 -1.630010
v 1.300010 2.000000 -1.630010
v 1.469990 2.100000 -1.799990
v 1.469990 2.000000 -1.630010
v 1.300010 2.100000 -1.799990
v 1.469990 2.000000 -1.799990
v 1.300010 2.000000 -1.799990
v 1.079990 2.100000 -1.075010
v 0.910010 2.100000 -1.075010
v 0.910010 2.000000 -1.075010
v 1.079990 2.100000 -1.244990
v 1.079990 2.000000 -1.075010
v 0.910010 2.100000 -1.244990
v 1.079990 2.000000 -1.244990
v 0.910010 2.000000 -1.244990
v 0.764990 2.100000 -0.295010
v 0.595010 2.100000 -0.295010
v 0.595010 2.000000 -0.295010
v 0.764990 2.100000 -0.464990
v 0.764990 2.000000 -0.295010
v 0.595010 2.100000 -0.464990
v 0.764990 2.000000 -0.464990
v 0.595010 2.000000 -0.464990
v 0.764990 2.100000 -2.235010
v 0.595010 2.100000 -2.235010
v 0.595010 2.000000 -2.235010
v 0.764990 2.100000 -2.404990
v 0.764990 2.000000 -2.235010
v 0.595010 2.100000 -2.404990
v 0.764990 2.000000 -2.404990
v 0.595010 2.000000 -2.404990
v 0.599990 2.100000 -1.075010
v 0.430010 2.100000 -1.075010
v 0.430010 2.000000 -1.075010
v 0.599990 2.100000 -1.244990
v 0.599990 2.000000 -1.075010
v 0.430010 2.100000 -1.244990
v 0.599990 2.000000 -1.244990
v 0.430010 2.000000 -1.244990
v 0.344990 2.100000 -0.475010
v 0.175010 2.100000 -0.475010
v 0.175010 2.000000 -0.475010
v 0.344990 2.100000 -0.644990
v 0.344990 2.000000 -0.475010
v 0.175010 2.100000 -0.644990
v 0.344990 2.000000 -0.644990
v 0.175010 2.000000 -0.644990
v 0.344990 2.100000 -1.690010
v 0.175010 2.100000 -1.690010
v 0.175010 2.000000 -1.690010
v 0.344990 2.100000 -1.859990
v 0.344990 2.000000 -1.690010
v 0.175010 2.100000 -1.859990
v 0.344990 2.000000 -1.859990
v 0.175010 2.000000 -1.859990
v 4.749990 2.100000 -0.360010
v 4.580010 2.100000 -0.360010
v 4.580010 2.000000 -0.360010
v 4.749990 2.100000 -0.529990
v 4.749990 2.000000 -0.360010
v 4.580010 2.100000 -0.529990
v 4.749990 2.000000 -0.529990
v 4.580010 2.000000 -0.529990
v 5.254990 2.100000 -2.215010
v 5.085010 2.100000 -2.215010
v 5.085010 2.000000 -2.215010
v 5.254990 2.100000 -2.384990
v 5.254990 2.000000 -2.215010
v 5.085010 2.100000 -2.384990
v 5.254990 2.000000 -2.384990
v 5.085010 2.000000 -2.384990
v 5.404990 2.100000 -1.595010
v 5.235010 2.100000 -1.595010
v 5.235010 2.000000 -1.595010
v 5.404990 2.100000 -1.764990
v 5.404990 2.000000 -1.595010
v 5.235010 2.100000 -1.764990
v 5.404990 2.000000 -1.764990
v 5.235010 2.000000 -1.764990
v 5.884990 2.100000 -1.595010
v 5.715010 2.100000 -1.595010
v 5.715010 2.000000 -1.595010
v 5.884990 2.100000 -1.764990
v 5.884990 2.000000 -1.595010
v 5.715010 2.100000 -1.764990
v 5.884990 2.000000 -1.764990
v 5.715010 2.000000 -1.764990
v 6.244990 2.100000 -1.035010
v 6.075010 2.100000 -1.035010
v 6.075010 2.000000 -1.035010
v 6.244990 2.100000 -1.204990
v 6.244990 2.000000 -1.035010
v 6.075010 2.100000 -1.204990
v 6.244990 2.000000 -1.204990
v 6.075010 2.000000 -1.204990
v 6.514990 2.100000 -0.275010
v 6.345010 2.100000 -0.275010
v 6.345010 2.000000 -0.275010
v 6.514990 2.100000 -0.444990
v 6.514990 2.000000 -0.275010
v 6.345010 2.100000 -0.444990
v 6.514990 2.000000 -0.444990
v 6.345010 2.000000 -0.444990
v 6.589990 2.100000 -2.275010
v 6.420010 2.100000 -2.275010
v 6.420010 2.000000 -2.275010
v 6.589990 2.100000 -2.444990
v 6.589990 2.000000 -2.275010
v 6.420010 2.100000 -2.444990
v 6.589990 2.000000 -2.444990
v 6.420010 2.000000 -2.444990
v 6.739990 2.100000 -1.075010
v 6.570010 2.100000 -1.075010
v 6.570010 2.000000 -1.075010
v 6.739990 2.100000 -1.244990
v 6.739990 2.000000 -1.075010
v 6.570010 2.100000 -1.244990
v 6.739990 2.000000 -1.244990
v 6.570010 2.000000 -1.244990
v 7.009990 2.100000 -2.125010
v 6.840010 2.100000 -2.125010
v 6.840010 2.000000 -2.125010
v 7.009990 2.100000 -2.294990
v 7.009990 2.000000 -2.125010
v 6.840010 2.100000 -2.294990
v 7.009990 2.000000 -2.294990
v 6.840010 2.000000 -2.294990
v 7.009990 2.100000 -1.675010
v 6.840010 2.100000 -1.675010
v 6.840010 2.000000 -1.675010
v 7.009990 2.100000 -1.844990
v 7.009990 2.000000 -1.675010
v 6.840010 2.100000 -1.844990
v 7.009990 2.000000 -1.844990
v 6.840010 2.000000 -1.844990
v 7.009990 2.100000 -0.475010
v 6.840010 2.100000 -0.475010
v 6.840010 2.000000 -0.475010
v 7.009990 2.100000 -0.644990
v 7.009990 2.000000 -0.475010
v 6.840010 2.100000 -0.644990
v 7.009990 2.000000 -0.644990
v 6.840010 2.000000 -0.644990
v 0.344990 2.100000 -2.160010
v 0.175010 2.100000 -2.160010
v 0.175010 2.000000 -2.160010
v 0.344990 2.100000 -2.329990
v 0.344990 2.000000 -2.160010
v 0.175010 2.100000 -2.329990
v 0.344990 2.000000 -2.329990
v 0.175010 2.000000 -2.329990
v 5.254990 2.100000 -0.335010
v 5.085010 2.100000 -0.335010
v 5.085010 2.000000 -0.335010
v 5.254990 2.100000 -0.504990
v 5.254990 2.000000 -0.335010
v 5.085010 2.100000 -0.504990
v 5.254990 2.000000 -0.504990
v 5.085010 2.000000 -0.504990
v 5.044990 2.100000 -0.955010
v 4.875010 2.100000 -0.955010
v 4.875010 2.000000 -0.955010
v 5.044990 2.100000 -1.124990
v 5.044990 2.000000 -0.955010
v 4.875010 2.100000 -1.124990
v 5.044990 2.000000 -1.124990
v 4.875010 2.000000 -1.124990
vn -0.0000 -0.0000 1.0000
vn 1.0000 -0.0000 -0.0000
vn -0.0000 -0.0000 -1.0000
vn -1.0000 -0.0000 -0.0000
vn -0.0000 1.0000 -0.0000
vn -0.0000 -1.0000 -0.0000
s 0
f 1//1 2//1 3//1
f 4//2 1//2 5//2
f 6//3 4//3 7//3
f 2//4 6//4 8//4
f 3//1 5//1 1//1
f 5//2 7//2 4//2
f 7//3 8//3 6//3
f 8//4 3//4 2//4
f 6//5 2//5 1//5
f 1//5 4//5 6//5
f 5//6 3//6 8//6
f 8//6 7//6 5//6
f 9//1 10//1 11//1
f 12//2 9//2 13//2
f 14//3 12//3 15//3
f 10//4 14//4 16//4
f 11//1 13//1 9//1
f 13//2 15//2 12//2
f 15//3 16//3 14//3
f 16//4 11//4 10//4
f 14//5 10//5 9//5
f 9//5 12//5 14//5
f 13//6 11//6 16//6
f 16//6 15//6 13//6
f 17//1 18//1 19//1
f 20//2 17//2 21//2
f 22//3 20//3 23//3
f 18//4 22//4 24//4
f 19//1 21//1 17//1
f 21//2 23//2 20//2
f 23//3 24//3 22//3
f 24//4 19//4 18//4
f 22//5 18//5 17//5
f 17//5 20//5 22//5
f 21//6 19//6 24//6
f 24//6 23//6 21//6
f 25//1 26//1 27//1
f 28//2 25//2 29//2
f 30//3 28//3 31//3
f 26//4 30//4 32//4
f 27//1 29//1 25//1
f 29//2 31//2 28//2
f 31//3 32//3 30//3
f 32//4 27//4 26//4
f 30//5 26//5 25//5
f 25//5 28//5 30//5
f 29//6 27//6 32//6
f 32//6 31//6 29//6
f 33//1 34//1 35//1
f 36//2 33//2 37//2
f 38//3 36//3 39//3
f 34//4 38//4 40//4
f 35//1 37//1 33//1
f 37//2 39//2 36//2
f 39//3 40//3 38//3
f 40//4 35//4 34//4
f 38//5 34//5 33//5
f 33//5 36//5 38//5
f 37//6 35//6 40//6
f 40//6 39//6 37//6
f 41//1 42//1 43//1
f 44//2 41//2 45//2
f 46//3 44//3 47//3
f 42//4 46//4 48//4
f 43//1 45//1 41//1
f 45//2 47//2 44//2
f 47//3 48//3 46//3
f 48//4 43//4 42//4
f 46//5 42//5 41//5
f 41//5 44//5 46//5
f 45//6 43//6 48//6
f 48//6 47//6 45//6
f 49//1 50//1 51//1
f 52//2 49//2 53//2
f 54//3 52//3 55//3
f 50//4 54//4 56//4
f 51//1 53//1 49//1
f 53//2 55//2 52//2
f 55//3 56//3 54//3
f 56//4 51//4 50//4
f 54//5 50//5 49//5
f 49//5 52//5 54//5
f 53//6 51//6 56//6
f 56//6 55//6 53//6
f 57//1 58//1 59//1
f 60//2 57//2 61//2
f 62//3 60//3 63//3
f 58//4 62//4 64//4
f 59//1 61//1 57//1
f 61//2 63//2 60//2
f 63//3 64//3 62//3
f 64//4 59//4 58//4
f 62//5 58//5 57//5
f 57//5 60//5 62//5
f 61//6 59//6 64//6
f 64//6 63//6 61//6
f 65//1 66//1 67//1
f 68//2 65//2 69//2
f 70//3 68//3 71//3
f 66//4 70//4 72//4
f 67//1 69//1 65//1
f 69//2 71//2 68//2
f 71//3 72//3 70//3
f 72//4 67//4 66//4
f 70//5 66//5 65//5
f 65//5 68//5 70//5
f 69//6 67//6 72//6
f 72//6 71//6 69//6
f 73//1 74//1 75//1
f 76//2 73//2 77//2
f 78//3 76//3 79//3
f 74//4 78//4 80//4
f 75//1 77//1 73//1
f 77//2 79//2 76//2
f 79//3 80//3 78//3
f 80//4 75//4 74//4
f 78//5 74//5 73//5
f 73//5 76//5 78//5
f 77//6 75//6 80//6
f 80//6 79//6 77//6
f 81//1 82//1 83//1
f 84//2 81//2 85//2
f 86//3 84//3 87//3
f 82//4 86//4 88//4
f 83//1 85//1 81//1
f 85//2 87//2 84//2
f 87//3 88//3 86//3
f 88//4 83//4 82//4
f 86//5 82//5 81//5
f 81//5 84//5 86//5
f 85//6 83//6 88//6
f 88//6 87//6 85//6
f 89//1 90//1 91//1
f 92//2 89//2 93//2
f 94//3 92//3 95//3
f 90//4 94//4 96//4
f 91//1 93//1 89//1
f 93//2 95//2 92//2
f 95//3 96//3 94//3
f 96//4 91//4 90//4
f 94//5 90//5 89//5
f 89//5 92//5 94//5
f 93//6 91//6 96//6
f 96//6 95//6 93//6
f 97//1 98//1 99//1
f 100//2 97//2 101//2
f 102//3 100//3 103//3
f 98//4 102//4 104//4
f 99//1 101//1 97//1
f 101//2 103//2 100//2
f 103//3 104//3 102//3
f 104//4 99//4 98//4
f 102//5 98//5 97//5
f 97//5 100//5 102//5
f 101//6 99//6 104//6
f 104//6 103//6 101//6
f 105//1 106//1 107//1
f 108//2 105//2 109//2
f 110//3 108//3 111//3
f 106//4 110//4 112//4
f 107//1 109//1 105//1
f 109//2 111//2 108//2
f 111//3 112//3 110//3
f 112//4 107//4 106//4
f 110//5 106//5 105//5
f 105//5 108//5 110//5
f 109//6 107//6 112//6
f 112//6 111//6 109//6
f 113//1 114//1 115//1
f 116//2 113//2 117//2
f 118//3 116//3 119//3
f 114//4 118//4 120//4
f 115//1 117//1 113//1
f 117//2 119//2 116//2
f 119//3 120//3 118//3
f 120//4 115//4 114//4
f 118//5 114//5 113//5
f 113//5 116//5 118//5
f 117//6 115//6 120//6
f 120//6 119//6 117//6
f 121//1 122//1 123//1
f 124//2 121//2 125//2
f 126//3 124//3 127//3
f 122//4 126//4 128//4
f 123//1 125//1 121//1
f 125//2 127//2 124//2
f 127//3 128//3 126//3
f 128//4 123//4 122//4
f 126//5 122//5 121//5
f 121//5 124//5 126//5
f 125//6 123//6 128//6
f 128//6 127//6 125//6
f 129//1 130//1 131//1
f 132//2 129//2 133//2
f 134//3 132//3 135//3
f 130//4 134//4 136//4
f 131//1 133//1 129//1
f 133//2 135//2 132//2
f 135//3 136//3 134//3
f 136//4 131//4 130//4
f 134//5 130//5 129//5
f 129//5 132//5 134//5
f 133//6 131//6 136//6
f 136//6 135//6 133//6
f 137//1 138//1 139//1
f 140//2 137//2 141//2
f 142//3 140//3 143//3
f 138//4 142//4 144//4
f 139//1 141//1 137//1
f 141//2 143//2 140//2
f 143//3 144//3 142//3
f 144//4 139//4 138//4
f 142//5 138//5 137//5
f 137//5 140//5 142//5
f 141//6 139//6 144//6
f 144//6 143//6 141//6
f 145//1 146//1 147//1
f 148//2 145//2 149//2
f 150//3 148//3 151//3
f 146//4 150//4 152//4
f 147//1 149//1 145//1
f 149//2 151//2 148//2
f 151//3 152//3 150//3
f 152//4 147//4 146//4
f 150//5 146//5 145//5
f 145//5 148//5 150//5
f 149//6 147//6 152//6
f 152//6 151//6 149//6
f 153//1 154//1 155//1
f 156//2 153//2 157//2
f 158//3 156//3 159//3
f 154//4 158//4 160//4
f 155//1 157//1 153//1
f 157//2 159//2 156//2
f 159//3 160//3 158//3
f 160//4 155//4 154//4
f 158//5 154//5 153//5
f 153//5 156//5 158//5
f 157//6 155//6 160//6
f 160//6 159//6 157//6
f 161//1 162//1 163//1
f 164//2 161//2 165//2
f 166//3 164//3 167//3
f 162//4 166//4 168//4
f 163//1 165//1 161//1
f 165//2 167//2 164//2
f 167//3 168//3 166//3
f 168//4 163//4 162//4
f 166//5 162//5 161//5
f 161//5 164//5 166//5
f 165//6 163//6 168//6
f 168//6 167//6 165//6
f 169//1 170//1 171//1
f 172//2 169//2 173//2
f 174//3 172//3 175//3
f 170//4 174//4 176//4
f 171//1 173//1 169//1
f 173//2 175//2 172//2
f 175//3 176//3 174//3
f 176//4 171//4 170//4
f 174//5 170//5 169//5
f 169//5 172//5 174//5
f 173//6 171//6 176//6
f 176//6 175//6 173//6
f 177//1 178//1 179//1
f 180//2 177//2 181//2
f 182//3 180//3 183//3
f 178//4 182//4 184//4
f 179//1 181//1 177//1
f 181//2 183//2 180//2
f 183//3 184//3 182//3
f 184//4 179//4 178//4
f 182//5 178//5 177//5
f 177//5 180//5 182//5
f 181//6 179//6 184//6
f 184//6 183//6 181//6
f 185//1 186//1 187//1
f 188//2 185//2 189//2
f 190//3 188//3 191//3
f 186//4 190//4 192//4
f 187//1 189//1 185//1
f 189//2 191//2 188//2
f 191//3 192//3 190//3
f 192//4 187//4 186//4
f 190//5 186//5 185//5
f 185//5 188//5 190//5
f 189//6 187//6 192//6
f 192//6 191//6 189//6
f 193//1 194//1 195//1
f 196//2 193//2 197//2
f 198//3 196//3 199//3
f 194//4 198//4 200//4
f 195//1 197//1 193//1
f 197//2 199//2 196//2
f 199//3 200//3 198//3
f 200//4 195//4 194//4
f 198//5 194//5 193//5
f 193//5 196//5 198//5
f 197//6 195//6 200//6
f 200//6 199//6 197//6
f 201//1 202//1 203//1
f 204//2 201//2 205//2
f 206//3 204//3 207//3
f 202//4 206//4 208//4
f 203//1 205//1 201//1
f 205//2 207//2 204//2
f 207//3 208//3 206//3
f 208//4 203//4 202//4
f 206//5 202//5 201//5
f 201//5 204//5 206//5
f 205//6 203//6 208//6
f 208//6 207//6 205//6
f 209//1 210//1 211//1
f 212//2 209//2 213//2
f 214//3 212//3 215//3
f 210//4 214//4 216//4
f 211//1 213//1 209//1
f 213//2 215//2 212//2
f 215//3 216//3 214//3
f 216//4 211//4 210//4
f 214//5 210//5 209//5
f 209//5 212//5 214//5
f 213//6 211//6 216//6
f 216//6 215//6 213//6
f 217//1 218//1 219//1
f 220//2 217//2 221//2
f 222//3 220//3 223//3
f 218//4 222//4 224//4
f 219//1 221//1 217//1
f 221//2 223//2 220//2
f 223//3 224//3 222//3
f 224//4 219//4 218//4
f 222//5 218//5 217//5
f 217//5 220//5 222//5
f 221//6 219//6 224//6
f 224//6 223//6 221//6
f 225//1 226//1 227//1
f 228//2 225//2 229//2
f 230//3 228//3 231//3
f 226//4 230//4 232//4
f 227//1 229//1 225//1
f 229//2 231//2 228//2
f 231//3 232//3 230//3
f 232//4 227//4 226//4
f 230//5 226//5 225//5
f 225//5 228//5 230//5
f 229//6 227//6 232//6
f 232//6 231//6 229//6
f 233//1 234//1 235//1
f 236//2 233//2 237//2
f 238//3 236//3 239//3
f 234//4 238//4 240//4
f 235//1 237//1 233//1
f 237//2 239//2 236//2
f 239//3 240//3 238//3
f 240//4 235//4 234//4
f 238//5 234//5 233//5
f 233//5 236//5 238//5
f 237//6 235//6 240//6
f 240//6 239//6 237//6
f 241//1 242//1 243//1
f 244//2 241//2 245//2
f 246//3 244//3 247//3
f 242//4 246//4 248//4
f 243//1 245//1 241//1
f 245//2 247//2 244//2
f 247//3 248//3 246//3
f 248//4 243//4 242//4
f 246//5 242//5 241//5
f 241//5 244//5 246//5
f 245//6 243//6 248//6
f 248//6 247//6 245//6
f 249//1 250//1 251//1
f 252//2 249//2 253//2
f 254//3 252//3 255//3
f 250//4 254//4 256//4
f 251//1 253//1 249//1
f 253//2 255//2 252//2
f 255//3 256//3 254//3
f 256//4 251//4 250//4
f 254//5 250//5 249//5
f 249//5 252//5 254//5
f 253//6 251//6 256//6
f 256//6 255//6 253//6
f 257//1 258//1 259//1
f 260//2 257//2 261//2
f 262//3 260//3 263//3
f 258//4 262//4 264//4
f 259//1 261//1 257//1
f 261//2 263//2 260//2
f 263//3 264//3 262//3
f 264//4 259//4 258//4
f 262//5 258//5 257//5
f 257//5 260//5 262//5
f 261//6 259//6 264//6
f 264//6 263//6 261//6
f 265//1 266//1 267//1
f 268//2 265//2 269//2
f 270//3 268//3 271//3
f 266//4 270//4 272//4
f 267//1 269//1 265//1
f 269//2 271//2 268//2
f 271//3 272//3 270//3
f 272//4 267//4 266//4
f 270//5 266//5 265//5
f 265//5 268//5 270//5
f 269//6 267//6 272//6
f 272//6 271//6 269//6
f 273//1 274//1 275//1
f 276//2 273//2 277//2
f 278//3 276//3 279//3
f 274//4 278//4 280//4
f 275//1 277//1 273//1
f 277//2 279//2 276//2
f 279//3 280//3 278//3
f 280//4 275//4 274//4
f 278//5 274//5 273//5
f 273//5 276//5 278//5
f 277//6 275//6 280//6
f 280//6 279//6 277//6
f 281//1 282//1 283//1
f 284//2 281//2 285//2
f 286//3 284//3 287//3
f 282//4 286//4 288//4
f 283//1 285//1 281//1
f 285//2 287//2 284//2
f 287//3 288//3 286//3
f 288//4 283//4 282//4
f 286//5 282//5 281//5
f 281//5 284//5 286//5
f 285//6 283//6 288//6
f 288//6 287//6 285//6
f 289//1 290//1 291//1
f 292//2 289//2 293//2
f 294//3 292//3 295//3
f 290//4 294//4 296//4
f 291//1 293//1 289//1
f 293//2 295//2 292//2
f 295//3 296//3 294//3
f 296//4 291//4 290//4
f 294//5 290//5 289//5
f 289//5 292//5 294//5
f 293//6 291//6 296//6
f 296//6 295//6 293//6
f 297//1 298//1 299//1
f 300//2 297//2 301//2
f 302//3 300//3 303//3
f 298//4 302//4 304//4
f 299//1 301//1 297//1
f 301//2 303//2 300//2
f 303//3 304//3 302//3
f 304//4 299//4 298//4
f 302//5 298//5 297//5
f 297//5 300//5 302//5
f 301//6 299//6 304//6
f 304//6 303//6 301//6
f 305//1 306//1 307//1
f 308//2 305//2 309//2
f 310//3 308//3 311//3
f 306//4 310//4 312//4
f 307//1 309//1 305//1
f 309//2 311//2 308//2
f 311//3 312//3 310//3
f 312//4 307//4 306//4
f 310//5 306//5 305//5
f 305//5 308//5 310//5
f 309//6 307//6 312//6
f 312//6 311//6 309//6
f 313//1 314//1 315//1
f 316//2 313//2 317//2
f 318//3 316//3 319//3
f 314//4 318//4 320//4
f 315//1 317//1 313//1
f 317//2 319//2 316//2
f 319//3 320//3 318//3
f 320//4 315//4 314//4
f 318//5 314//5 313//5
f 313//5 316//5 318//5
f 317//6 315//6 320//6
f 320//6 319//6 317//6
f 321//1 322//1 323//1
f 324//2 321//2 325//2
f 326//3 324//3 327//3
f 322//4 326//4 328//4
f 323//1 325//1 321//1
f 325//2 327//2 324//2
f 327//3 328//3 326//3
f 328//4 323//4 322//4
f 326//5 322//5 321//5
f 321//5 324//5 326//5
f 325//6 323//6 328//6
f 328//6 327//6 325//6
