# Blender 4.5.3 LTS
# www.blender.org
o sky130_fd_sc_hd__fa_1.gds_met1
v 7.359990 0.100000 -2.959990
v 7.359990 0.100000 -2.480010
v 7.359990 0.000000 -2.480010
v 0.000010 0.100000 -2.959990
v 7.359990 0.000000 -2.959990
v 0.000010 0.100000 -2.480010
v 0.000010 0.000000 -2.959990
v 0.000010 0.000000 -2.480010
v 7.359990 0.100000 -0.239990
v 7.359990 0.100000 0.239990
v 7.359990 0.000000 0.239990
v 0.000010 0.100000 -0.239990
v 7.359990 0.000000 -0.239990
v 0.000010 0.100000 0.239990
v 0.000010 0.000000 -0.239990
v 0.000010 0.000000 0.239990
v 5.170010 0.100000 -0.964990
v 5.459990 0.100000 -0.964990
v 5.459990 0.000000 -0.964990
v 5.170010 0.100000 -0.919990
v 5.170010 0.000000 -0.964990
v 1.759990 0.100000 -0.919990
v 5.170010 0.000000 -0.919990
v 1.759990 0.100000 -0.964990
v 1.759990 0.000000 -0.919990
v 1.470010 0.100000 -0.964990
v 1.759990 0.000000 -0.964990
v 1.470010 0.100000 -0.735010
v 1.470010 0.000000 -0.964990
v 1.759990 0.100000 -0.735010
v 1.470010 0.000000 -0.735010
v 1.759990 0.100000 -0.780010
v 1.759990 0.000000 -0.735010
v 5.170010 0.100000 -0.780010
v 1.759990 0.000000 -0.780010
v 5.170010 0.100000 -0.735010
v 5.170010 0.000000 -0.780010
v 5.459990 0.100000 -0.735010
v 5.170010 0.000000 -0.735010
v 5.459990 0.000000 -0.735010
v 5.630010 0.100000 -1.644990
v 5.919990 0.100000 -1.644990
v 5.919990 0.000000 -1.644990
v 5.630010 0.100000 -1.599990
v 5.630010 0.000000 -1.644990
v 3.619990 0.100000 -1.599990
v 5.630010 0.000000 -1.599990
v 3.619990 0.100000 -1.644990
v 3.619990 0.000000 -1.599990
v 3.330010 0.100000 -1.644990
v 3.619990 0.000000 -1.644990
v 3.330010 0.100000 -1.599990
v 3.330010 0.000000 -1.644990
v 1.759990 0.100000 -1.599990
v 3.330010 0.000000 -1.599990
v 1.759990 0.100000 -1.644990
v 1.759990 0.000000 -1.599990
v 1.470010 0.100000 -1.644990
v 1.759990 0.000000 -1.644990
v 1.470010 0.100000 -1.415010
v 1.470010 0.000000 -1.644990
v 1.759990 0.100000 -1.415010
v 1.470010 0.000000 -1.415010
v 1.759990 0.100000 -1.460010
v 1.759990 0.000000 -1.415010
v 3.330010 0.100000 -1.460010
v 1.759990 0.000000 -1.460010
v 3.330010 0.100000 -1.415010
v 3.330010 0.000000 -1.460010
v 3.619990 0.100000 -1.415010
v 3.330010 0.000000 -1.415010
v 3.619990 0.100000 -1.460010
v 3.619990 0.000000 -1.415010
v 5.630010 0.100000 -1.460010
v 3.619990 0.000000 -1.460010
v 5.630010 0.100000 -1.415010
v 5.630010 0.000000 -1.460010
v 5.919990 0.100000 -1.415010
v 5.630010 0.000000 -1.415010
v 5.919990 0.000000 -1.415010
v 6.090010 0.100000 -1.304990
v 6.379990 0.100000 -1.304990
v 6.379990 0.000000 -1.304990
v 6.090010 0.100000 -1.259990
v 6.090010 0.000000 -1.304990
v 4.539990 0.100000 -1.259990
v 6.090010 0.000000 -1.259990
v 4.539990 0.100000 -1.304990
v 4.539990 0.000000 -1.259990
v 4.250010 0.100000 -1.304990
v 4.539990 0.000000 -1.304990
v 4.250010 0.100000 -1.259990
v 4.250010 0.000000 -1.304990
v 2.679990 0.100000 -1.259990
v 4.250010 0.000000 -1.259990
v 2.679990 0.100000 -1.304990
v 2.679990 0.000000 -1.259990
v 2.390010 0.100000 -1.304990
v 2.679990 0.000000 -1.304990
v 2.390010 0.100000 -1.259990
v 2.390010 0.000000 -1.304990
v 1.299990 0.100000 -1.259990
v 2.390010 0.000000 -1.259990
v 1.299990 0.100000 -1.304990
v 1.299990 0.000000 -1.259990
v 1.010010 0.100000 -1.304990
v 1.299990 0.000000 -1.304990
v 1.010010 0.100000 -1.075010
v 1.010010 0.000000 -1.304990
v 1.299990 0.100000 -1.075010
v 1.010010 0.000000 -1.075010
v 1.299990 0.100000 -1.120010
v 1.299990 0.000000 -1.075010
v 2.390010 0.100000 -1.120010
v 1.299990 0.000000 -1.120010
v 2.390010 0.100000 -1.075010
v 2.390010 0.000000 -1.120010
v 2.679990 0.100000 -1.075010
v 2.390010 0.000000 -1.075010
v 2.679990 0.100000 -1.120010
v 2.679990 0.000000 -1.075010
v 4.250010 0.100000 -1.120010
v 2.679990 0.000000 -1.120010
v 4.250010 0.100000 -1.075010
v 4.250010 0.000000 -1.120010
v 4.539990 0.100000 -1.075010
v 4.250010 0.000000 -1.075010
v 4.539990 0.100000 -1.120010
v 4.539990 0.000000 -1.075010
v 6.090010 0.100000 -1.120010
v 4.539990 0.000000 -1.120010
v 6.090010 0.100000 -1.075010
v 6.090010 0.000000 -1.120010
v 6.379990 0.100000 -1.075010
v 6.090010 0.000000 -1.075010
v 6.379990 0.000000 -1.075010
vn 1.0000 -0.0000 -0.0000
vn -0.0000 -0.0000 -1.0000
vn -1.0000 -0.0000 -0.0000
vn -0.0000 -0.0000 1.0000
vn -0.0000 1.0000 -0.0000
vn -0.0000 -1.0000 -0.0000
s 0
f 1//1 2//1 3//1
f 4//2 1//2 5//2
f 6//3 4//3 7//3
f 2//4 6//4 8//4
f 3//1 5//1 1//1
f 5//2 7//2 4//2
f 7//3 8//3 6//3
f 8//4 3//4 2//4
f 4//5 6//5 2//5
f 2//5 1//5 4//5
f 3//6 8//6 7//6
f 7//6 5//6 3//6
f 9//1 10//1 11//1
f 12//2 9//2 13//2
f 14//3 12//3 15//3
f 10//4 14//4 16//4
f 11//1 13//1 9//1
f 13//2 15//2 12//2
f 15//3 16//3 14//3
f 16//4 11//4 10//4
f 12//5 14//5 10//5
f 10//5 9//5 12//5
f 11//6 16//6 15//6
f 15//6 13//6 11//6
f 17//2 18//2 19//2
f 20//3 17//3 21//3
f 22//2 20//2 23//2
f 24//1 22//1 25//1
f 26//2 24//2 27//2
f 28//3 26//3 29//3
f 30//4 28//4 31//4
f 32//1 30//1 33//1
f 34//4 32//4 35//4
f 36//3 34//3 37//3
f 38//4 36//4 39//4
f 18//1 38//1 40//1
f 19//2 21//2 17//2
f 21//3 23//3 20//3
f 23//2 25//2 22//2
f 25//1 27//1 24//1
f 27//2 29//2 26//2
f 29//3 31//3 28//3
f 31//4 33//4 30//4
f 33//1 35//1 32//1
f 35//4 37//4 34//4
f 37//3 39//3 36//3
f 39//4 40//4 38//4
f 40//1 19//1 18//1
f 28//5 30//5 32//5
f 28//5 32//5 26//5
f 26//5 22//5 24//5
f 22//5 26//5 32//5
f 32//5 34//5 22//5
f 36//5 38//5 34//5
f 34//5 38//5 18//5
f 20//5 18//5 17//5
f 18//5 20//5 34//5
f 34//5 20//5 22//5
f 35//6 33//6 31//6
f 29//6 35//6 31//6
f 27//6 25//6 29//6
f 35//6 29//6 25//6
f 25//6 37//6 35//6
f 37//6 40//6 39//6
f 19//6 40//6 37//6
f 21//6 19//6 23//6
f 37//6 23//6 19//6
f 25//6 23//6 37//6
f 41//2 42//2 43//2
f 44//3 41//3 45//3
f 46//2 44//2 47//2
f 48//1 46//1 49//1
f 50//2 48//2 51//2
f 52//3 50//3 53//3
f 54//2 52//2 55//2
f 56//1 54//1 57//1
f 58//2 56//2 59//2
f 60//3 58//3 61//3
f 62//4 60//4 63//4
f 64//1 62//1 65//1
f 66//4 64//4 67//4
f 68//3 66//3 69//3
f 70//4 68//4 71//4
f 72//1 70//1 73//1
f 74//4 72//4 75//4
f 76//3 74//3 77//3
f 78//4 76//4 79//4
f 42//1 78//1 80//1
f 43//2 45//2 41//2
f 45//3 47//3 44//3
f 47//2 49//2 46//2
f 49//1 51//1 48//1
f 51//2 53//2 50//2
f 53//3 55//3 52//3
f 55//2 57//2 54//2
f 57//1 59//1 56//1
f 59//2 61//2 58//2
f 61//3 63//3 60//3
f 63//4 65//4 62//4
f 65//1 67//1 64//1
f 67//4 69//4 66//4
f 69//3 71//3 68//3
f 71//4 73//4 70//4
f 73//1 75//1 72//1
f 75//4 77//4 74//4
f 77//3 79//3 76//3
f 79//4 80//4 78//4
f 80//1 43//1 42//1
f 60//5 62//5 64//5
f 66//5 68//5 70//5
f 64//5 66//5 52//5
f 60//5 64//5 54//5
f 58//5 54//5 56//5
f 54//5 58//5 60//5
f 50//5 52//5 46//5
f 54//5 64//5 52//5
f 66//5 72//5 52//5
f 70//5 72//5 66//5
f 76//5 78//5 74//5
f 74//5 78//5 42//5
f 72//5 74//5 44//5
f 46//5 48//5 50//5
f 44//5 42//5 41//5
f 42//5 44//5 74//5
f 46//5 72//5 44//5
f 72//5 46//5 52//5
f 67//6 65//6 63//6
f 73//6 71//6 69//6
f 55//6 69//6 67//6
f 57//6 67//6 63//6
f 59//6 57//6 61//6
f 63//6 61//6 57//6
f 49//6 55//6 53//6
f 55//6 67//6 57//6
f 55//6 75//6 69//6
f 69//6 75//6 73//6
f 77//6 80//6 79//6
f 43//6 80//6 77//6
f 47//6 77//6 75//6
f 53//6 51//6 49//6
f 45//6 43//6 47//6
f 77//6 47//6 43//6
f 47//6 75//6 49//6
f 55//6 49//6 75//6
f 81//2 82//2 83//2
f 84//3 81//3 85//3
f 86//2 84//2 87//2
f 88//1 86//1 89//1
f 90//2 88//2 91//2
f 92//3 90//3 93//3
f 94//2 92//2 95//2
f 96//1 94//1 97//1
f 98//2 96//2 99//2
f 100//3 98//3 101//3
f 102//2 100//2 103//2
f 104//1 102//1 105//1
f 106//2 104//2 107//2
f 108//3 106//3 109//3
f 110//4 108//4 111//4
f 112//1 110//1 113//1
f 114//4 112//4 115//4
f 116//3 114//3 117//3
f 118//4 116//4 119//4
f 120//1 118//1 121//1
f 122//4 120//4 123//4
f 124//3 122//3 125//3
f 126//4 124//4 127//4
f 128//1 126//1 129//1
f 130//4 128//4 131//4
f 132//3 130//3 133//3
f 134//4 132//4 135//4
f 82//1 134//1 136//1
f 83//2 85//2 81//2
f 85//3 87//3 84//3
f 87//2 89//2 86//2
f 89//1 91//1 88//1
f 91//2 93//2 90//2
f 93//3 95//3 92//3
f 95//2 97//2 94//2
f 97//1 99//1 96//1
f 99//2 101//2 98//2
f 101//3 103//3 100//3
f 103//2 105//2 102//2
f 105//1 107//1 104//1
f 107//2 109//2 106//2
f 109//3 111//3 108//3
f 111//4 113//4 110//4
f 113//1 115//1 112//1
f 115//4 117//4 114//4
f 117//3 119//3 116//3
f 119//4 121//4 118//4
f 121//1 123//1 120//1
f 123//4 125//4 122//4
f 125//3 127//3 124//3
f 127//4 129//4 126//4
f 129//1 131//1 128//1
f 131//4 133//4 130//4
f 133//3 135//3 132//3
f 135//4 136//4 134//4
f 136//1 83//1 82//1
f 108//5 110//5 112//5
f 108//5 112//5 106//5
f 116//5 118//5 120//5
f 114//5 120//5 94//5
f 120//5 114//5 116//5
f 112//5 114//5 100//5
f 106//5 102//5 104//5
f 102//5 106//5 112//5
f 100//5 94//5 96//5
f 94//5 100//5 114//5
f 96//5 98//5 100//5
f 102//5 112//5 100//5
f 120//5 122//5 94//5
f 124//5 126//5 122//5
f 122//5 126//5 128//5
f 132//5 134//5 130//5
f 128//5 130//5 84//5
f 134//5 82//5 130//5
f 122//5 128//5 86//5
f 92//5 86//5 90//5
f 86//5 92//5 122//5
f 90//5 86//5 88//5
f 82//5 81//5 84//5
f 84//5 130//5 82//5
f 86//5 128//5 84//5
f 122//5 92//5 94//5
f 115//6 113//6 111//6
f 109//6 115//6 111//6
f 123//6 121//6 119//6
f 97//6 123//6 117//6
f 119//6 117//6 123//6
f 103//6 117//6 115//6
f 107//6 105//6 109//6
f 115//6 109//6 105//6
f 99//6 97//6 103//6
f 117//6 103//6 97//6
f 103//6 101//6 99//6
f 103//6 115//6 105//6
f 97//6 125//6 123//6
f 125//6 129//6 127//6
f 131//6 129//6 125//6
f 133//6 136//6 135//6
f 87//6 133//6 131//6
f 133//6 83//6 136//6
f 89//6 131//6 125//6
f 93//6 89//6 95//6
f 125//6 95//6 89//6
f 91//6 89//6 93//6
f 87//6 85//6 83//6
f 83//6 133//6 87//6
f 87//6 131//6 89//6
f 97//6 95//6 125//6
