# Blender 4.5.3 LTS
# www.blender.org
o sky130_fd_sc_hd__fa_1.gds_nwell
v 7.549990 1.600000 -1.305010
v -0.189990 1.600000 -1.305010
v -0.189990 1.500000 -1.305010
v 7.549990 1.600000 -2.909990
v 7.549990 1.500000 -1.305010
v -0.189990 1.600000 -2.909990
v 7.549990 1.500000 -2.909990
v -0.189990 1.500000 -2.909990
vn -0.0000 -0.0000 1.0000
vn 1.0000 -0.0000 -0.0000
vn -0.0000 -0.0000 -1.0000
vn -1.0000 -0.0000 -0.0000
vn -0.0000 1.0000 -0.0000
vn -0.0000 -1.0000 -0.0000
s 0
f 1//1 2//1 3//1
f 4//2 1//2 5//2
f 6//3 4//3 7//3
f 2//4 6//4 8//4
f 3//1 5//1 1//1
f 5//2 7//2 4//2
f 7//3 8//3 6//3
f 8//4 3//4 2//4
f 6//5 2//5 1//5
f 1//5 4//5 6//5
f 5//6 3//6 8//6
f 8//6 7//6 5//6
