# Blender 4.5.3 LTS
# www.blender.org
o sky130_fd_sc_hd__fa_1.gds_poly
v 1.039990 3.100000 -1.324990
v 1.129990 3.100000 -1.324990
v 1.129990 3.000000 -1.324990
v 1.039990 3.100000 -2.614990
v 1.039990 3.000000 -1.324990
v 0.890010 3.100000 -2.614990
v 1.039990 3.000000 -2.614990
v 0.890010 3.100000 -1.324990
v 0.890010 3.000000 -2.614990
v 0.860010 3.100000 -1.324990
v 0.890010 3.000000 -1.324990
v 0.860010 3.100000 -0.995010
v 0.860010 3.000000 -1.324990
v 0.890010 3.100000 -0.995010
v 0.860010 3.000000 -0.995010
v 0.890010 3.100000 -0.105010
v 0.890010 3.000000 -0.995010
v 1.039990 3.100000 -0.105010
v 0.890010 3.000000 -0.105010
v 1.039990 3.100000 -0.995010
v 1.039990 3.000000 -0.105010
v 1.129990 3.100000 -0.995010
v 1.039990 3.000000 -0.995010
v 1.129990 3.000000 -0.995010
v 0.544990 3.100000 -1.324990
v 0.649990 3.100000 -1.324990
v 0.649990 3.000000 -1.324990
v 0.544990 3.100000 -2.614990
v 0.544990 3.000000 -1.324990
v 0.395010 3.100000 -2.614990
v 0.544990 3.000000 -2.614990
v 0.395010 3.100000 -1.324990
v 0.395010 3.000000 -2.614990
v 0.380010 3.100000 -1.324990
v 0.395010 3.000000 -1.324990
v 0.380010 3.100000 -0.995010
v 0.380010 3.000000 -1.324990
v 0.395010 3.100000 -0.995010
v 0.380010 3.000000 -0.995010
v 0.395010 3.100000 -0.105010
v 0.395010 3.000000 -0.995010
v 0.544990 3.100000 -0.105010
v 0.395010 3.000000 -0.105010
v 0.544990 3.100000 -0.995010
v 0.544990 3.000000 -0.105010
v 0.649990 3.100000 -0.995010
v 0.544990 3.000000 -0.995010
v 0.649990 3.000000 -0.995010
v 1.489990 3.100000 -1.879990
v 1.519990 3.100000 -1.879990
v 1.519990 3.000000 -1.879990
v 1.489990 3.100000 -2.614990
v 1.489990 3.000000 -1.879990
v 1.340010 3.100000 -2.614990
v 1.489990 3.000000 -2.614990
v 1.340010 3.100000 -1.879990
v 1.340010 3.000000 -2.614990
v 1.250010 3.100000 -1.879990
v 1.340010 3.000000 -1.879990
v 1.250010 3.100000 -1.550010
v 1.250010 3.000000 -1.879990
v 1.340010 3.100000 -1.550010
v 1.250010 3.000000 -1.550010
v 1.340010 3.100000 -0.105010
v 1.340010 3.000000 -1.550010
v 1.489990 3.100000 -0.105010
v 1.340010 3.000000 -0.105010
v 1.489990 3.100000 -1.550010
v 1.489990 3.000000 -0.105010
v 1.519990 3.100000 -1.550010
v 1.489990 3.000000 -1.550010
v 1.519990 3.000000 -1.550010
v 1.909990 3.100000 -1.354990
v 1.969990 3.100000 -1.354990
v 1.969990 3.000000 -1.354990
v 1.909990 3.100000 -2.614990
v 1.909990 3.000000 -1.354990
v 1.760010 3.100000 -2.614990
v 1.909990 3.000000 -2.614990
v 1.760010 3.100000 -1.354990
v 1.760010 3.000000 -2.614990
v 1.700010 3.100000 -1.354990
v 1.760010 3.000000 -1.354990
v 1.700010 3.100000 -1.025010
v 1.700010 3.000000 -1.354990
v 1.760010 3.100000 -1.025010
v 1.700010 3.000000 -1.025010
v 1.760010 3.100000 -0.105010
v 1.760010 3.000000 -1.025010
v 1.909990 3.100000 -0.105010
v 1.760010 3.000000 -0.105010
v 1.909990 3.100000 -1.025010
v 1.909990 3.000000 -0.105010
v 1.969990 3.100000 -1.025010
v 1.909990 3.000000 -1.025010
v 1.969990 3.000000 -1.025010
v 2.329990 3.100000 -1.359990
v 2.449990 3.100000 -1.359990
v 2.449990 3.000000 -1.359990
v 2.329990 3.100000 -2.614990
v 2.329990 3.000000 -1.359990
v 2.180010 3.100000 -2.614990
v 2.329990 3.000000 -2.614990
v 2.180010 3.100000 -0.105010
v 2.180010 3.000000 -2.614990
v 2.329990 3.100000 -0.105010
v 2.180010 3.000000 -0.105010
v 2.329990 3.100000 -1.030010
v 2.329990 3.000000 -0.105010
v 2.449990 3.100000 -1.030010
v 2.329990 3.000000 -1.030010
v 2.449990 3.000000 -1.030010
v 3.634990 3.100000 -0.954990
v 3.689990 3.100000 -0.954990
v 3.689990 3.000000 -0.954990
v 3.634990 3.100000 -1.840010
v 3.634990 3.000000 -0.954990
v 3.689990 3.100000 -1.840010
v 3.634990 3.000000 -1.840010
v 3.689990 3.100000 -2.614990
v 3.689990 3.000000 -1.840010
v 3.540010 3.100000 -2.614990
v 3.689990 3.000000 -2.614990
v 3.540010 3.100000 -1.989990
v 3.540010 3.000000 -2.614990
v 2.749990 3.100000 -1.989990
v 3.540010 3.000000 -1.989990
v 2.749990 3.100000 -2.614990
v 2.749990 3.000000 -1.989990
v 2.600010 3.100000 -2.614990
v 2.749990 3.000000 -2.614990
v 2.600010 3.100000 -1.840010
v 2.600010 3.000000 -2.614990
v 3.315010 3.100000 -1.840010
v 2.600010 3.000000 -1.840010
v 3.315010 3.100000 -1.435010
v 3.315010 3.000000 -1.840010
v 3.485010 3.100000 -1.435010
v 3.315010 3.000000 -1.435010
v 3.485010 3.100000 -0.879990
v 3.485010 3.000000 -1.435010
v 2.600010 3.100000 -0.879990
v 3.485010 3.000000 -0.879990
v 2.600010 3.100000 -0.105010
v 2.600010 3.000000 -0.879990
v 2.749990 3.100000 -0.105010
v 2.600010 3.000000 -0.105010
v 2.749990 3.100000 -0.730010
v 2.749990 3.000000 -0.105010
v 3.540010 3.100000 -0.730010
v 2.749990 3.000000 -0.730010
v 3.540010 3.100000 -0.105010
v 3.540010 3.000000 -0.730010
v 3.689990 3.100000 -0.105010
v 3.540010 3.000000 -0.105010
v 3.689990 3.000000 -0.105010
v 4.109990 3.100000 -1.764990
v 4.169990 3.100000 -1.764990
v 4.169990 3.000000 -1.764990
v 4.109990 3.100000 -2.614990
v 4.109990 3.000000 -1.764990
v 3.960010 3.100000 -2.614990
v 4.109990 3.000000 -2.614990
v 3.960010 3.100000 -1.764990
v 3.960010 3.000000 -2.614990
v 3.900010 3.100000 -1.764990
v 3.960010 3.000000 -1.764990
v 3.900010 3.100000 -1.435010
v 3.900010 3.000000 -1.764990
v 3.965010 3.100000 -1.435010
v 3.900010 3.000000 -1.435010
v 3.965010 3.100000 -0.879990
v 3.965010 3.000000 -1.435010
v 3.960010 3.100000 -0.879990
v 3.965010 3.000000 -0.879990
v 3.960010 3.100000 -0.105010
v 3.960010 3.000000 -0.879990
v 4.109990 3.100000 -0.105010
v 3.960010 3.000000 -0.105010
v 4.109990 3.100000 -0.730010
v 4.109990 3.000000 -0.105010
v 4.114990 3.100000 -0.730010
v 4.109990 3.000000 -0.730010
v 4.114990 3.100000 -1.435010
v 4.114990 3.000000 -0.730010
v 4.169990 3.100000 -1.435010
v 4.114990 3.000000 -1.435010
v 4.169990 3.000000 -1.435010
v 4.529990 3.100000 -1.204990
v 4.594990 3.100000 -1.204990
v 4.594990 3.000000 -1.204990
v 4.529990 3.100000 -2.614990
v 4.529990 3.000000 -1.204990
v 4.380010 3.100000 -2.614990
v 4.529990 3.000000 -2.614990
v 4.380010 3.100000 -1.204990
v 4.380010 3.000000 -2.614990
v 4.325010 3.100000 -1.204990
v 4.380010 3.000000 -1.204990
v 4.325010 3.100000 -0.875010
v 4.325010 3.000000 -1.204990
v 4.380010 3.100000 -0.875010
v 4.325010 3.000000 -0.875010
v 4.380010 3.100000 -0.105010
v 4.380010 3.000000 -0.875010
v 4.529990 3.100000 -0.105010
v 4.380010 3.000000 -0.105010
v 4.529990 3.100000 -0.875010
v 4.529990 3.000000 -0.105010
v 4.594990 3.100000 -0.875010
v 4.529990 3.000000 -0.875010
v 4.594990 3.000000 -0.875010
v 4.974990 3.100000 -1.204990
v 5.094990 3.100000 -1.204990
v 5.094990 3.000000 -1.204990
v 4.974990 3.100000 -2.614990
v 4.974990 3.000000 -1.204990
v 4.825010 3.100000 -2.614990
v 4.974990 3.000000 -2.614990
v 4.825010 3.100000 -0.105010
v 4.825010 3.000000 -2.614990
v 4.974990 3.100000 -0.105010
v 4.825010 3.000000 -0.105010
v 4.974990 3.100000 -0.875010
v 4.974990 3.000000 -0.105010
v 5.094990 3.100000 -0.875010
v 4.974990 3.000000 -0.875010
v 5.094990 3.000000 -0.875010
v 5.305010 3.100000 -2.614990
v 5.454990 3.100000 -2.614990
v 5.454990 3.000000 -2.614990
v 5.305010 3.100000 -1.844990
v 5.305010 3.000000 -2.614990
v 5.185010 3.100000 -1.844990
v 5.305010 3.000000 -1.844990
v 5.185010 3.100000 -1.515010
v 5.185010 3.000000 -1.844990
v 5.305010 3.100000 -1.515010
v 5.185010 3.000000 -1.515010
v 5.305010 3.100000 -0.105010
v 5.305010 3.000000 -1.515010
v 5.454990 3.100000 -0.105010
v 5.305010 3.000000 -0.105010
v 5.454990 3.000000 -0.105010
v 5.814990 3.100000 -1.844990
v 5.934990 3.100000 -1.844990
v 5.934990 3.000000 -1.844990
v 5.814990 3.100000 -2.614990
v 5.814990 3.000000 -1.844990
v 5.665010 3.100000 -2.614990
v 5.814990 3.000000 -2.614990
v 5.665010 3.100000 -0.105010
v 5.665010 3.000000 -2.614990
v 5.814990 3.100000 -0.105010
v 5.665010 3.000000 -0.105010
v 5.814990 3.100000 -1.515010
v 5.814990 3.000000 -0.105010
v 5.934990 3.100000 -1.515010
v 5.814990 3.000000 -1.515010
v 5.934990 3.000000 -1.515010
v 6.145010 3.100000 -2.614990
v 6.294990 3.100000 -2.614990
v 6.294990 3.000000 -2.614990
v 6.145010 3.100000 -1.284990
v 6.145010 3.000000 -2.614990
v 6.025010 3.100000 -1.284990
v 6.145010 3.000000 -1.284990
v 6.025010 3.100000 -0.955010
v 6.025010 3.000000 -1.284990
v 6.145010 3.100000 -0.955010
v 6.025010 3.000000 -0.955010
v 6.145010 3.100000 -0.105010
v 6.145010 3.000000 -0.955010
v 6.294990 3.100000 -0.105010
v 6.145010 3.000000 -0.105010
v 6.294990 3.000000 -0.105010
v 6.640010 3.100000 -2.614990
v 6.789990 3.100000 -2.614990
v 6.789990 3.000000 -2.614990
v 6.640010 3.100000 -1.324990
v 6.640010 3.000000 -2.614990
v 6.520010 3.100000 -1.324990
v 6.640010 3.000000 -1.324990
v 6.520010 3.100000 -0.995010
v 6.520010 3.000000 -1.324990
v 6.640010 3.100000 -0.995010
v 6.520010 3.000000 -0.995010
v 6.640010 3.100000 -0.105010
v 6.640010 3.000000 -0.995010
v 6.789990 3.100000 -0.105010
v 6.640010 3.000000 -0.105010
v 6.789990 3.000000 -0.105010
vn -0.0000 -0.0000 -1.0000
vn 1.0000 -0.0000 -0.0000
vn -1.0000 -0.0000 -0.0000
vn -0.0000 -0.0000 1.0000
vn -0.0000 1.0000 -0.0000
vn -0.0000 -1.0000 -0.0000
s 0
f 1//1 2//1 3//1
f 4//2 1//2 5//2
f 6//1 4//1 7//1
f 8//3 6//3 9//3
f 10//1 8//1 11//1
f 12//3 10//3 13//3
f 14//4 12//4 15//4
f 16//3 14//3 17//3
f 18//4 16//4 19//4
f 20//2 18//2 21//2
f 22//4 20//4 23//4
f 2//2 22//2 24//2
f 3//1 5//1 1//1
f 5//2 7//2 4//2
f 7//1 9//1 6//1
f 9//3 11//3 8//3
f 11//1 13//1 10//1
f 13//3 15//3 12//3
f 15//4 17//4 14//4
f 17//3 19//3 16//3
f 19//4 21//4 18//4
f 21//2 23//2 20//2
f 23//4 24//4 22//4
f 24//2 3//2 2//2
f 14//5 16//5 18//5
f 12//5 14//5 8//5
f 8//5 10//5 12//5
f 6//5 8//5 1//5
f 14//5 20//5 8//5
f 20//5 22//5 2//5
f 18//5 20//5 14//5
f 2//5 1//5 20//5
f 1//5 4//5 6//5
f 20//5 1//5 8//5
f 21//6 19//6 17//6
f 11//6 17//6 15//6
f 15//6 13//6 11//6
f 5//6 11//6 9//6
f 11//6 23//6 17//6
f 3//6 24//6 23//6
f 17//6 23//6 21//6
f 23//6 5//6 3//6
f 9//6 7//6 5//6
f 11//6 5//6 23//6
f 25//1 26//1 27//1
f 28//2 25//2 29//2
f 30//1 28//1 31//1
f 32//3 30//3 33//3
f 34//1 32//1 35//1
f 36//3 34//3 37//3
f 38//4 36//4 39//4
f 40//3 38//3 41//3
f 42//4 40//4 43//4
f 44//2 42//2 45//2
f 46//4 44//4 47//4
f 26//2 46//2 48//2
f 27//1 29//1 25//1
f 29//2 31//2 28//2
f 31//1 33//1 30//1
f 33//3 35//3 32//3
f 35//1 37//1 34//1
f 37//3 39//3 36//3
f 39//4 41//4 38//4
f 41//3 43//3 40//3
f 43//4 45//4 42//4
f 45//2 47//2 44//2
f 47//4 48//4 46//4
f 48//2 27//2 26//2
f 38//5 40//5 42//5
f 36//5 38//5 32//5
f 32//5 34//5 36//5
f 30//5 32//5 25//5
f 38//5 44//5 32//5
f 44//5 46//5 26//5
f 42//5 44//5 38//5
f 26//5 25//5 44//5
f 25//5 28//5 30//5
f 44//5 25//5 32//5
f 45//6 43//6 41//6
f 35//6 41//6 39//6
f 39//6 37//6 35//6
f 29//6 35//6 33//6
f 35//6 47//6 41//6
f 27//6 48//6 47//6
f 41//6 47//6 45//6
f 47//6 29//6 27//6
f 33//6 31//6 29//6
f 35//6 29//6 47//6
f 49//1 50//1 51//1
f 52//2 49//2 53//2
f 54//1 52//1 55//1
f 56//3 54//3 57//3
f 58//1 56//1 59//1
f 60//3 58//3 61//3
f 62//4 60//4 63//4
f 64//3 62//3 65//3
f 66//4 64//4 67//4
f 68//2 66//2 69//2
f 70//4 68//4 71//4
f 50//2 70//2 72//2
f 51//1 53//1 49//1
f 53//2 55//2 52//2
f 55//1 57//1 54//1
f 57//3 59//3 56//3
f 59//1 61//1 58//1
f 61//3 63//3 60//3
f 63//4 65//4 62//4
f 65//3 67//3 64//3
f 67//4 69//4 66//4
f 69//2 71//2 68//2
f 71//4 72//4 70//4
f 72//2 51//2 50//2
f 62//5 64//5 66//5
f 60//5 62//5 56//5
f 56//5 58//5 60//5
f 54//5 56//5 49//5
f 62//5 68//5 56//5
f 68//5 70//5 50//5
f 66//5 68//5 62//5
f 50//5 49//5 68//5
f 49//5 52//5 54//5
f 68//5 49//5 56//5
f 69//6 67//6 65//6
f 59//6 65//6 63//6
f 63//6 61//6 59//6
f 53//6 59//6 57//6
f 59//6 71//6 65//6
f 51//6 72//6 71//6
f 65//6 71//6 69//6
f 71//6 53//6 51//6
f 57//6 55//6 53//6
f 59//6 53//6 71//6
f 73//1 74//1 75//1
f 76//2 73//2 77//2
f 78//1 76//1 79//1
f 80//3 78//3 81//3
f 82//1 80//1 83//1
f 84//3 82//3 85//3
f 86//4 84//4 87//4
f 88//3 86//3 89//3
f 90//4 88//4 91//4
f 92//2 90//2 93//2
f 94//4 92//4 95//4
f 74//2 94//2 96//2
f 75//1 77//1 73//1
f 77//2 79//2 76//2
f 79//1 81//1 78//1
f 81//3 83//3 80//3
f 83//1 85//1 82//1
f 85//3 87//3 84//3
f 87//4 89//4 86//4
f 89//3 91//3 88//3
f 91//4 93//4 90//4
f 93//2 95//2 92//2
f 95//4 96//4 94//4
f 96//2 75//2 74//2
f 86//5 88//5 90//5
f 84//5 86//5 80//5
f 80//5 82//5 84//5
f 78//5 80//5 73//5
f 86//5 92//5 80//5
f 92//5 94//5 74//5
f 90//5 92//5 86//5
f 74//5 73//5 92//5
f 73//5 76//5 78//5
f 92//5 73//5 80//5
f 93//6 91//6 89//6
f 83//6 89//6 87//6
f 87//6 85//6 83//6
f 77//6 83//6 81//6
f 83//6 95//6 89//6
f 75//6 96//6 95//6
f 89//6 95//6 93//6
f 95//6 77//6 75//6
f 81//6 79//6 77//6
f 83//6 77//6 95//6
f 97//1 98//1 99//1
f 100//2 97//2 101//2
f 102//1 100//1 103//1
f 104//3 102//3 105//3
f 106//4 104//4 107//4
f 108//2 106//2 109//2
f 110//4 108//4 111//4
f 98//2 110//2 112//2
f 99//1 101//1 97//1
f 101//2 103//2 100//2
f 103//1 105//1 102//1
f 105//3 107//3 104//3
f 107//4 109//4 106//4
f 109//2 111//2 108//2
f 111//4 112//4 110//4
f 112//2 99//2 98//2
f 104//5 106//5 108//5
f 97//5 104//5 108//5
f 104//5 97//5 102//5
f 97//5 110//5 98//5
f 110//5 97//5 108//5
f 97//5 100//5 102//5
f 111//6 109//6 107//6
f 111//6 107//6 101//6
f 105//6 101//6 107//6
f 99//6 112//6 101//6
f 111//6 101//6 112//6
f 105//6 103//6 101//6
f 113//1 114//1 115//1
f 116//2 113//2 117//2
f 118//4 116//4 119//4
f 120//2 118//2 121//2
f 122//1 120//1 123//1
f 124//3 122//3 125//3
f 126//1 124//1 127//1
f 128//2 126//2 129//2
f 130//1 128//1 131//1
f 132//3 130//3 133//3
f 134//4 132//4 135//4
f 136//3 134//3 137//3
f 138//4 136//4 139//4
f 140//3 138//3 141//3
f 142//1 140//1 143//1
f 144//3 142//3 145//3
f 146//4 144//4 147//4
f 148//2 146//2 149//2
f 150//4 148//4 151//4
f 152//3 150//3 153//3
f 154//4 152//4 155//4
f 114//2 154//2 156//2
f 115//1 117//1 113//1
f 117//2 119//2 116//2
f 119//4 121//4 118//4
f 121//2 123//2 120//2
f 123//1 125//1 122//1
f 125//3 127//3 124//3
f 127//1 129//1 126//1
f 129//2 131//2 128//2
f 131//1 133//1 130//1
f 133//3 135//3 132//3
f 135//4 137//4 134//4
f 137//3 139//3 136//3
f 139//4 141//4 138//4
f 141//3 143//3 140//3
f 143//1 145//1 142//1
f 145//3 147//3 144//3
f 147//4 149//4 146//4
f 149//2 151//2 148//2
f 151//4 153//4 150//4
f 153//3 155//3 152//3
f 155//4 156//4 154//4
f 156//2 115//2 114//2
f 142//5 144//5 148//5
f 148//5 150//5 140//5
f 148//5 140//5 142//5
f 146//5 148//5 144//5
f 132//5 126//5 130//5
f 130//5 126//5 128//5
f 124//5 126//5 134//5
f 126//5 132//5 134//5
f 138//5 134//5 136//5
f 113//5 140//5 150//5
f 150//5 152//5 154//5
f 150//5 114//5 113//5
f 114//5 150//5 154//5
f 113//5 138//5 140//5
f 134//5 116//5 124//5
f 122//5 124//5 120//5
f 134//5 138//5 116//5
f 118//5 120//5 124//5
f 138//5 113//5 116//5
f 118//5 124//5 116//5
f 151//6 147//6 145//6
f 143//6 153//6 151//6
f 145//6 143//6 151//6
f 147//6 151//6 149//6
f 133//6 129//6 135//6
f 131//6 129//6 133//6
f 137//6 129//6 127//6
f 137//6 135//6 129//6
f 139//6 137//6 141//6
f 153//6 143//6 117//6
f 156//6 155//6 153//6
f 117//6 115//6 153//6
f 156//6 153//6 115//6
f 143//6 141//6 117//6
f 127//6 119//6 137//6
f 123//6 127//6 125//6
f 119//6 141//6 137//6
f 127//6 123//6 121//6
f 119//6 117//6 141//6
f 119//6 127//6 121//6
f 157//1 158//1 159//1
f 160//2 157//2 161//2
f 162//1 160//1 163//1
f 164//3 162//3 165//3
f 166//1 164//1 167//1
f 168//3 166//3 169//3
f 170//4 168//4 171//4
f 172//3 170//3 173//3
f 174//1 172//1 175//1
f 176//3 174//3 177//3
f 178//4 176//4 179//4
f 180//2 178//2 181//2
f 182//4 180//4 183//4
f 184//2 182//2 185//2
f 186//4 184//4 187//4
f 158//2 186//2 188//2
f 159//1 161//1 157//1
f 161//2 163//2 160//2
f 163//1 165//1 162//1
f 165//3 167//3 164//3
f 167//1 169//1 166//1
f 169//3 171//3 168//3
f 171//4 173//4 170//4
f 173//3 175//3 172//3
f 175//1 177//1 174//1
f 177//3 179//3 176//3
f 179//4 181//4 178//4
f 181//2 183//2 180//2
f 183//4 185//4 182//4
f 185//2 187//2 184//2
f 187//4 188//4 186//4
f 188//2 159//2 158//2
f 180//5 172//5 174//5
f 174//5 176//5 180//5
f 166//5 168//5 164//5
f 157//5 164//5 170//5
f 164//5 157//5 162//5
f 168//5 170//5 164//5
f 172//5 184//5 170//5
f 178//5 180//5 176//5
f 182//5 184//5 172//5
f 184//5 157//5 170//5
f 157//5 160//5 162//5
f 158//5 157//5 184//5
f 184//5 186//5 158//5
f 172//5 180//5 182//5
f 177//6 175//6 183//6
f 183//6 179//6 177//6
f 167//6 171//6 169//6
f 173//6 167//6 161//6
f 165//6 161//6 167//6
f 167//6 173//6 171//6
f 173//6 187//6 175//6
f 179//6 183//6 181//6
f 175//6 187//6 185//6
f 173//6 161//6 187//6
f 165//6 163//6 161//6
f 187//6 161//6 159//6
f 159//6 188//6 187//6
f 185//6 183//6 175//6
f 189//1 190//1 191//1
f 192//2 189//2 193//2
f 194//1 192//1 195//1
f 196//3 194//3 197//3
f 198//1 196//1 199//1
f 200//3 198//3 201//3
f 202//4 200//4 203//4
f 204//3 202//3 205//3
f 206//4 204//4 207//4
f 208//2 206//2 209//2
f 210//4 208//4 211//4
f 190//2 210//2 212//2
f 191//1 193//1 189//1
f 193//2 195//2 192//2
f 195//1 197//1 194//1
f 197//3 199//3 196//3
f 199//1 201//1 198//1
f 201//3 203//3 200//3
f 203//4 205//4 202//4
f 205//3 207//3 204//3
f 207//4 209//4 206//4
f 209//2 211//2 208//2
f 211//4 212//4 210//4
f 212//2 191//2 190//2
f 202//5 204//5 206//5
f 200//5 202//5 196//5
f 196//5 198//5 200//5
f 194//5 196//5 189//5
f 202//5 208//5 196//5
f 208//5 210//5 190//5
f 206//5 208//5 202//5
f 190//5 189//5 208//5
f 189//5 192//5 194//5
f 208//5 189//5 196//5
f 209//6 207//6 205//6
f 199//6 205//6 203//6
f 203//6 201//6 199//6
f 193//6 199//6 197//6
f 199//6 211//6 205//6
f 191//6 212//6 211//6
f 205//6 211//6 209//6
f 211//6 193//6 191//6
f 197//6 195//6 193//6
f 199//6 193//6 211//6
f 213//1 214//1 215//1
f 216//2 213//2 217//2
f 218//1 216//1 219//1
f 220//3 218//3 221//3
f 222//4 220//4 223//4
f 224//2 222//2 225//2
f 226//4 224//4 227//4
f 214//2 226//2 228//2
f 215//1 217//1 213//1
f 217//2 219//2 216//2
f 219//1 221//1 218//1
f 221//3 223//3 220//3
f 223//4 225//4 222//4
f 225//2 227//2 224//2
f 227//4 228//4 226//4
f 228//2 215//2 214//2
f 220//5 222//5 224//5
f 213//5 220//5 224//5
f 220//5 213//5 218//5
f 213//5 226//5 214//5
f 226//5 213//5 224//5
f 213//5 216//5 218//5
f 227//6 225//6 223//6
f 227//6 223//6 217//6
f 221//6 217//6 223//6
f 215//6 228//6 217//6
f 227//6 217//6 228//6
f 221//6 219//6 217//6
f 229//1 230//1 231//1
f 232//3 229//3 233//3
f 234//1 232//1 235//1
f 236//3 234//3 237//3
f 238//4 236//4 239//4
f 240//3 238//3 241//3
f 242//4 240//4 243//4
f 230//2 242//2 244//2
f 231//1 233//1 229//1
f 233//3 235//3 232//3
f 235//1 237//1 234//1
f 237//3 239//3 236//3
f 239//4 241//4 238//4
f 241//3 243//3 240//3
f 243//4 244//4 242//4
f 244//2 231//2 230//2
f 234//5 238//5 232//5
f 238//5 234//5 236//5
f 240//5 242//5 238//5
f 238//5 230//5 232//5
f 230//5 238//5 242//5
f 230//5 229//5 232//5
f 235//6 241//6 237//6
f 239//6 237//6 241//6
f 241//6 244//6 243//6
f 235//6 231//6 241//6
f 244//6 241//6 231//6
f 235//6 233//6 231//6
f 245//1 246//1 247//1
f 248//2 245//2 249//2
f 250//1 248//1 251//1
f 252//3 250//3 253//3
f 254//4 252//4 255//4
f 256//2 254//2 257//2
f 258//4 256//4 259//4
f 246//2 258//2 260//2
f 247//1 249//1 245//1
f 249//2 251//2 248//2
f 251//1 253//1 250//1
f 253//3 255//3 252//3
f 255//4 257//4 254//4
f 257//2 259//2 256//2
f 259//4 260//4 258//4
f 260//2 247//2 246//2
f 252//5 254//5 256//5
f 250//5 256//5 245//5
f 256//5 250//5 252//5
f 245//5 258//5 246//5
f 258//5 245//5 256//5
f 245//5 248//5 250//5
f 259//6 257//6 255//6
f 249//6 259//6 253//6
f 255//6 253//6 259//6
f 247//6 260//6 249//6
f 259//6 249//6 260//6
f 253//6 251//6 249//6
f 261//1 262//1 263//1
f 264//3 261//3 265//3
f 266//1 264//1 267//1
f 268//3 266//3 269//3
f 270//4 268//4 271//4
f 272//3 270//3 273//3
f 274//4 272//4 275//4
f 262//2 274//2 276//2
f 263//1 265//1 261//1
f 265//3 267//3 264//3
f 267//1 269//1 266//1
f 269//3 271//3 268//3
f 271//4 273//4 270//4
f 273//3 275//3 272//3
f 275//4 276//4 274//4
f 276//2 263//2 262//2
f 266//5 270//5 264//5
f 270//5 266//5 268//5
f 272//5 274//5 270//5
f 264//5 274//5 262//5
f 274//5 264//5 270//5
f 262//5 261//5 264//5
f 267//6 273//6 269//6
f 271//6 269//6 273//6
f 273//6 276//6 275//6
f 263//6 276//6 267//6
f 273//6 267//6 276//6
f 267//6 265//6 263//6
f 277//1 278//1 279//1
f 280//3 277//3 281//3
f 282//1 280//1 283//1
f 284//3 282//3 285//3
f 286//4 284//4 287//4
f 288//3 286//3 289//3
f 290//4 288//4 291//4
f 278//2 290//2 292//2
f 279//1 281//1 277//1
f 281//3 283//3 280//3
f 283//1 285//1 282//1
f 285//3 287//3 284//3
f 287//4 289//4 286//4
f 289//3 291//3 288//3
f 291//4 292//4 290//4
f 292//2 279//2 278//2
f 282//5 286//5 280//5
f 286//5 282//5 284//5
f 288//5 290//5 286//5
f 280//5 290//5 278//5
f 290//5 280//5 286//5
f 278//5 277//5 280//5
f 283//6 289//6 285//6
f 287//6 285//6 289//6
f 289//6 292//6 291//6
f 279//6 292//6 283//6
f 289//6 283//6 292//6
f 283//6 281//6 279//6
